<?xml version="1.0" encoding="UTF-8" standalone="no"?>
<!DOCTYPE svg PUBLIC "-//W3C//DTD SVG 1.1//EN" "http://www.w3.org/Graphics/SVG/1.1/DTD/svg11.dtd">
<!-- Generated by graphviz version 2.40.1 (20161225.0304)
 -->
<!-- Title: %0 Pages: 1 -->
<svg width="1193pt" height="3356pt" viewBox="0.00 0.00 1192.66 3356.00" xmlns="http://www.w3.org/2000/svg" xmlns:xlink="http://www.w3.org/1999/xlink">
<g id="graph0" class="graph" transform="scale(1 1) rotate(0) translate(4 3352)">
<title>%0</title>
<polygon fill="#ffffff" stroke="transparent" points="-4,4 -4,-3352 1188.6648,-3352 1188.6648,4 -4,4"/>
<!-- X0 -->
<g id="node1" class="node">
<title>X0</title>
<ellipse fill="none" stroke="#000000" cx="225" cy="-3330" rx="27" ry="18"/>
<text text-anchor="middle" x="225" y="-3325.8" font-family="Times,serif" font-size="14.00" fill="#000000">X0</text>
</g>
<!-- L0 -->
<g id="node2" class="node">
<title>L0</title>
<ellipse fill="none" stroke="#000000" cx="405" cy="-3258" rx="27" ry="18"/>
<text text-anchor="middle" x="405" y="-3253.8" font-family="Times,serif" font-size="14.00" fill="#000000">L0</text>
</g>
<!-- X0&#45;&#45;L0 -->
<g id="edge1" class="edge">
<title>X0--L0</title>
<path fill="none" stroke="#000000" d="M248.1634,-3320.7347C282.6307,-3306.9477 347.0598,-3281.1761 381.6404,-3267.3438"/>
</g>
<!-- X1 -->
<g id="node3" class="node">
<title>X1</title>
<ellipse fill="none" stroke="#000000" cx="27" cy="-3186" rx="27" ry="18"/>
<text text-anchor="middle" x="27" y="-3181.8" font-family="Times,serif" font-size="14.00" fill="#000000">X1</text>
</g>
<!-- X0&#45;&#45;X1 -->
<g id="edge2" class="edge">
<title>X0--X1</title>
<path fill="none" stroke="#000000" d="M206.7275,-3316.7109C169.1035,-3289.348 83.347,-3226.9797 45.5162,-3199.4663"/>
</g>
<!-- L0&#45;&#45;X1 -->
<g id="edge3" class="edge">
<title>L0--X1</title>
<path fill="none" stroke="#000000" d="M377.8358,-3256.0063C319.8857,-3251.2437 180.2622,-3237.0471 68,-3204 61.5866,-3202.1121 54.8552,-3199.4612 48.7432,-3196.7731"/>
</g>
<!-- X2 -->
<g id="node4" class="node">
<title>X2</title>
<ellipse fill="none" stroke="#000000" cx="65" cy="-3114" rx="27" ry="18"/>
<text text-anchor="middle" x="65" y="-3109.8" font-family="Times,serif" font-size="14.00" fill="#000000">X2</text>
</g>
<!-- L0&#45;&#45;X2 -->
<g id="edge4" class="edge">
<title>L0--X2</title>
<path fill="none" stroke="#000000" d="M377.7782,-3256.2756C312.3158,-3251.6373 148.3679,-3236.9501 106,-3204 83.0945,-3186.186 72.5634,-3152.6695 68.0509,-3131.9461"/>
</g>
<!-- X3 -->
<g id="node5" class="node">
<title>X3</title>
<ellipse fill="none" stroke="#000000" cx="103" cy="-3042" rx="27" ry="18"/>
<text text-anchor="middle" x="103" y="-3037.8" font-family="Times,serif" font-size="14.00" fill="#000000">X3</text>
</g>
<!-- L0&#45;&#45;X3 -->
<g id="edge5" class="edge">
<title>L0--X3</title>
<path fill="none" stroke="#000000" d="M377.7952,-3255.9714C317.927,-3250.9563 177.429,-3235.994 144,-3204 103.758,-3165.4856 100.8165,-3093.6178 101.8609,-3060.091"/>
</g>
<!-- X4 -->
<g id="node6" class="node">
<title>X4</title>
<ellipse fill="none" stroke="#000000" cx="141" cy="-2970" rx="27" ry="18"/>
<text text-anchor="middle" x="141" y="-2965.8" font-family="Times,serif" font-size="14.00" fill="#000000">X4</text>
</g>
<!-- L0&#45;&#45;X4 -->
<g id="edge6" class="edge">
<title>L0--X4</title>
<path fill="none" stroke="#000000" d="M377.9855,-3255.1365C324.6423,-3248.9168 208.6365,-3232.4018 182,-3204 152.6575,-3172.7129 143.9302,-3037.7908 141.689,-2988.2949"/>
</g>
<!-- X5 -->
<g id="node7" class="node">
<title>X5</title>
<ellipse fill="none" stroke="#000000" cx="179" cy="-2898" rx="27" ry="18"/>
<text text-anchor="middle" x="179" y="-2893.8" font-family="Times,serif" font-size="14.00" fill="#000000">X5</text>
</g>
<!-- L0&#45;&#45;X5 -->
<g id="edge7" class="edge">
<title>L0--X5</title>
<path fill="none" stroke="#000000" d="M378.5196,-3253.5523C332.8792,-3245.3707 242.1527,-3226.6773 220,-3204 191.0718,-3174.3869 196,-3155.3978 196,-3114 196,-3114 196,-3114 196,-3042 196,-2996.4358 187.5018,-2943.3176 182.5224,-2916.1045"/>
</g>
<!-- X6 -->
<g id="node8" class="node">
<title>X6</title>
<ellipse fill="none" stroke="#000000" cx="217" cy="-2826" rx="27" ry="18"/>
<text text-anchor="middle" x="217" y="-2821.8" font-family="Times,serif" font-size="14.00" fill="#000000">X6</text>
</g>
<!-- L0&#45;&#45;X6 -->
<g id="edge8" class="edge">
<title>L0--X6</title>
<path fill="none" stroke="#000000" d="M378.087,-3255.5311C345.0439,-3251.0459 289.5212,-3238.5438 258,-3204 230.0958,-3173.42 234,-3155.3978 234,-3114 234,-3114 234,-3114 234,-2970 234,-2924.4358 225.5018,-2871.3176 220.5224,-2844.1045"/>
</g>
<!-- X7 -->
<g id="node9" class="node">
<title>X7</title>
<ellipse fill="none" stroke="#000000" cx="255" cy="-2754" rx="27" ry="18"/>
<text text-anchor="middle" x="255" y="-2749.8" font-family="Times,serif" font-size="14.00" fill="#000000">X7</text>
</g>
<!-- L0&#45;&#45;X7 -->
<g id="edge9" class="edge">
<title>L0--X7</title>
<path fill="none" stroke="#000000" d="M379.5384,-3251.947C354.6255,-3244.7078 317.3965,-3230.1521 296,-3204 269.7859,-3171.9595 272,-3155.3978 272,-3114 272,-3114 272,-3114 272,-2898 272,-2852.4358 263.5018,-2799.3176 258.5224,-2772.1045"/>
</g>
<!-- X8 -->
<g id="node10" class="node">
<title>X8</title>
<ellipse fill="none" stroke="#000000" cx="293" cy="-2682" rx="27" ry="18"/>
<text text-anchor="middle" x="293" y="-2677.8" font-family="Times,serif" font-size="14.00" fill="#000000">X8</text>
</g>
<!-- L0&#45;&#45;X8 -->
<g id="edge10" class="edge">
<title>L0--X8</title>
<path fill="none" stroke="#000000" d="M383.5832,-3246.8671C367.6214,-3237.4986 346.5042,-3222.6518 334,-3204 310.9477,-3169.6144 310,-3155.3978 310,-3114 310,-3114 310,-3114 310,-2826 310,-2780.4358 301.5018,-2727.3176 296.5224,-2700.1045"/>
</g>
<!-- X9 -->
<g id="node11" class="node">
<title>X9</title>
<ellipse fill="none" stroke="#000000" cx="331" cy="-2610" rx="27" ry="18"/>
<text text-anchor="middle" x="331" y="-2605.8" font-family="Times,serif" font-size="14.00" fill="#000000">X9</text>
</g>
<!-- L0&#45;&#45;X9 -->
<g id="edge11" class="edge">
<title>L0--X9</title>
<path fill="none" stroke="#000000" d="M393.2913,-3241.649C386.304,-3231.2723 377.7087,-3217.332 372,-3204 355.7046,-3165.9443 348,-3155.3978 348,-3114 348,-3114 348,-3114 348,-2754 348,-2708.4358 339.5018,-2655.3176 334.5224,-2628.1045"/>
</g>
<!-- X10 -->
<g id="node12" class="node">
<title>X10</title>
<ellipse fill="none" stroke="#000000" cx="368" cy="-2538" rx="27.8306" ry="18"/>
<text text-anchor="middle" x="368" y="-2533.8" font-family="Times,serif" font-size="14.00" fill="#000000">X10</text>
</g>
<!-- L0&#45;&#45;X10 -->
<g id="edge12" class="edge">
<title>L0--X10</title>
<path fill="none" stroke="#000000" d="M401.0632,-3239.9156C395.498,-3212.7281 386,-3159.6422 386,-3114 386,-3114 386,-3114 386,-2682 386,-2636.3979 377.0019,-2583.2954 371.7296,-2556.0947"/>
</g>
<!-- X11 -->
<g id="node13" class="node">
<title>X11</title>
<ellipse fill="none" stroke="#000000" cx="406" cy="-2466" rx="27.8306" ry="18"/>
<text text-anchor="middle" x="406" y="-2461.8" font-family="Times,serif" font-size="14.00" fill="#000000">X11</text>
</g>
<!-- L0&#45;&#45;X11 -->
<g id="edge13" class="edge">
<title>L0--X11</title>
<path fill="none" stroke="#000000" d="M408.9368,-3239.9156C414.502,-3212.7281 424,-3159.6422 424,-3114 424,-3114 424,-3114 424,-2610 424,-2564.3979 415.0019,-2511.2954 409.7296,-2484.0947"/>
</g>
<!-- X12 -->
<g id="node14" class="node">
<title>X12</title>
<ellipse fill="none" stroke="#000000" cx="444" cy="-2394" rx="27.8306" ry="18"/>
<text text-anchor="middle" x="444" y="-2389.8" font-family="Times,serif" font-size="14.00" fill="#000000">X12</text>
</g>
<!-- L0&#45;&#45;X12 -->
<g id="edge14" class="edge">
<title>L0--X12</title>
<path fill="none" stroke="#000000" d="M416.2614,-3241.5531C432.8729,-3215.6458 462,-3163.2038 462,-3114 462,-3114 462,-3114 462,-2538 462,-2492.3979 453.0019,-2439.2954 447.7296,-2412.0947"/>
</g>
<!-- X13 -->
<g id="node15" class="node">
<title>X13</title>
<ellipse fill="none" stroke="#000000" cx="482" cy="-2322" rx="27.8306" ry="18"/>
<text text-anchor="middle" x="482" y="-2317.8" font-family="Times,serif" font-size="14.00" fill="#000000">X13</text>
</g>
<!-- L0&#45;&#45;X13 -->
<g id="edge15" class="edge">
<title>L0--X13</title>
<path fill="none" stroke="#000000" d="M422.4245,-3244.0836C449.8502,-3220.4817 500,-3169.7076 500,-3114 500,-3114 500,-3114 500,-2466 500,-2420.3979 491.0019,-2367.2954 485.7296,-2340.0947"/>
</g>
<!-- X14 -->
<g id="node16" class="node">
<title>X14</title>
<ellipse fill="none" stroke="#000000" cx="520" cy="-2250" rx="27.8306" ry="18"/>
<text text-anchor="middle" x="520" y="-2245.8" font-family="Times,serif" font-size="14.00" fill="#000000">X14</text>
</g>
<!-- L0&#45;&#45;X14 -->
<g id="edge16" class="edge">
<title>L0--X14</title>
<path fill="none" stroke="#000000" d="M426.9622,-3247.1147C464.738,-3226.6618 538,-3178.6604 538,-3114 538,-3114 538,-3114 538,-2394 538,-2348.3979 529.0019,-2295.2954 523.7296,-2268.0947"/>
</g>
<!-- X15 -->
<g id="node17" class="node">
<title>X15</title>
<ellipse fill="none" stroke="#000000" cx="558" cy="-2178" rx="27.8306" ry="18"/>
<text text-anchor="middle" x="558" y="-2173.8" font-family="Times,serif" font-size="14.00" fill="#000000">X15</text>
</g>
<!-- L0&#45;&#45;X15 -->
<g id="edge17" class="edge">
<title>L0--X15</title>
<path fill="none" stroke="#000000" d="M429.5001,-3250.2597C476.7832,-3233.6186 576,-3189.6828 576,-3114 576,-3114 576,-3114 576,-2322 576,-2276.3979 567.0019,-2223.2954 561.7296,-2196.0947"/>
</g>
<!-- X16 -->
<g id="node18" class="node">
<title>X16</title>
<ellipse fill="none" stroke="#000000" cx="596" cy="-2106" rx="27.8306" ry="18"/>
<text text-anchor="middle" x="596" y="-2101.8" font-family="Times,serif" font-size="14.00" fill="#000000">X16</text>
</g>
<!-- L0&#45;&#45;X16 -->
<g id="edge18" class="edge">
<title>L0--X16</title>
<path fill="none" stroke="#000000" d="M431.0474,-3252.8992C487.0735,-3240.2542 614,-3201.9064 614,-3114 614,-3114 614,-3114 614,-2250 614,-2204.3979 605.0019,-2151.2954 599.7296,-2124.0947"/>
</g>
<!-- X17 -->
<g id="node19" class="node">
<title>X17</title>
<ellipse fill="none" stroke="#000000" cx="634" cy="-2034" rx="27.8306" ry="18"/>
<text text-anchor="middle" x="634" y="-2029.8" font-family="Times,serif" font-size="14.00" fill="#000000">X17</text>
</g>
<!-- L0&#45;&#45;X17 -->
<g id="edge19" class="edge">
<title>L0--X17</title>
<path fill="none" stroke="#000000" d="M431.9035,-3255.0601C495.9205,-3246.4244 652,-3215.0119 652,-3114 652,-3114 652,-3114 652,-2178 652,-2132.3979 643.0019,-2079.2954 637.7296,-2052.0947"/>
</g>
<!-- X18 -->
<g id="node20" class="node">
<title>X18</title>
<ellipse fill="none" stroke="#000000" cx="672" cy="-1962" rx="27.8306" ry="18"/>
<text text-anchor="middle" x="672" y="-1957.8" font-family="Times,serif" font-size="14.00" fill="#000000">X18</text>
</g>
<!-- L0&#45;&#45;X18 -->
<g id="edge20" class="edge">
<title>L0--X18</title>
<path fill="none" stroke="#000000" d="M432.069,-3256.8221C503.2098,-3252.1358 690,-3228.8918 690,-3114 690,-3114 690,-3114 690,-2106 690,-2060.3979 681.0019,-2007.2954 675.7296,-1980.0947"/>
</g>
<!-- X19 -->
<g id="node21" class="node">
<title>X19</title>
<ellipse fill="none" stroke="#000000" cx="710" cy="-1890" rx="27.8306" ry="18"/>
<text text-anchor="middle" x="710" y="-1885.8" font-family="Times,serif" font-size="14.00" fill="#000000">X19</text>
</g>
<!-- L0&#45;&#45;X19 -->
<g id="edge21" class="edge">
<title>L0--X19</title>
<path fill="none" stroke="#000000" d="M431.9078,-3254.999C490.5168,-3248.0582 627.539,-3229.5181 666,-3204 706.4744,-3177.1461 728,-3162.5727 728,-3114 728,-3114 728,-3114 728,-2034 728,-1988.3979 719.0019,-1935.2954 713.7296,-1908.0947"/>
</g>
<!-- X20 -->
<g id="node22" class="node">
<title>X20</title>
<ellipse fill="none" stroke="#000000" cx="748" cy="-1818" rx="27.8306" ry="18"/>
<text text-anchor="middle" x="748" y="-1813.8" font-family="Times,serif" font-size="14.00" fill="#000000">X20</text>
</g>
<!-- L0&#45;&#45;X20 -->
<g id="edge22" class="edge">
<title>L0--X20</title>
<path fill="none" stroke="#000000" d="M432.1466,-3255.6842C496.6588,-3249.7713 657.1087,-3232.5372 702,-3204 743.4215,-3177.6686 766,-3163.0824 766,-3114 766,-3114 766,-3114 766,-1962 766,-1916.3979 757.0019,-1863.2954 751.7296,-1836.0947"/>
</g>
<!-- X21 -->
<g id="node23" class="node">
<title>X21</title>
<ellipse fill="none" stroke="#000000" cx="776" cy="-1746" rx="27.8306" ry="18"/>
<text text-anchor="middle" x="776" y="-1741.8" font-family="Times,serif" font-size="14.00" fill="#000000">X21</text>
</g>
<!-- L0&#45;&#45;X21 -->
<g id="edge23" class="edge">
<title>L0--X21</title>
<path fill="none" stroke="#000000" d="M432.0984,-3256.2781C502.1654,-3251.4132 687.4475,-3235.8061 739,-3204 780.9923,-3178.0922 804,-3163.3413 804,-3114 804,-3114 804,-3114 804,-1890 804,-1843.9025 790.003,-1791.0051 781.8016,-1763.9672"/>
</g>
<!-- X1&#45;&#45;X2 -->
<g id="edge24" class="edge">
<title>X1--X2</title>
<path fill="none" stroke="#000000" d="M36.0055,-3168.937C41.9752,-3157.626 49.7851,-3142.8282 55.7952,-3131.4407"/>
</g>
<!-- X2&#45;&#45;X3 -->
<g id="edge25" class="edge">
<title>X2--X3</title>
<path fill="none" stroke="#000000" d="M74.0055,-3096.937C79.9752,-3085.626 87.7851,-3070.8282 93.7952,-3059.4407"/>
</g>
<!-- X3&#45;&#45;X4 -->
<g id="edge26" class="edge">
<title>X3--X4</title>
<path fill="none" stroke="#000000" d="M112.0055,-3024.937C117.9752,-3013.626 125.7851,-2998.8282 131.7952,-2987.4407"/>
</g>
<!-- X4&#45;&#45;X5 -->
<g id="edge27" class="edge">
<title>X4--X5</title>
<path fill="none" stroke="#000000" d="M150.0055,-2952.937C155.9752,-2941.626 163.7851,-2926.8282 169.7952,-2915.4407"/>
</g>
<!-- X5&#45;&#45;X6 -->
<g id="edge28" class="edge">
<title>X5--X6</title>
<path fill="none" stroke="#000000" d="M188.0055,-2880.937C193.9752,-2869.626 201.7851,-2854.8282 207.7952,-2843.4407"/>
</g>
<!-- X6&#45;&#45;X7 -->
<g id="edge29" class="edge">
<title>X6--X7</title>
<path fill="none" stroke="#000000" d="M226.0055,-2808.937C231.9752,-2797.626 239.7851,-2782.8282 245.7952,-2771.4407"/>
</g>
<!-- X7&#45;&#45;X8 -->
<g id="edge30" class="edge">
<title>X7--X8</title>
<path fill="none" stroke="#000000" d="M264.0055,-2736.937C269.9752,-2725.626 277.7851,-2710.8282 283.7952,-2699.4407"/>
</g>
<!-- X8&#45;&#45;X9 -->
<g id="edge31" class="edge">
<title>X8--X9</title>
<path fill="none" stroke="#000000" d="M302.0055,-2664.937C307.9752,-2653.626 315.7851,-2638.8282 321.7952,-2627.4407"/>
</g>
<!-- X9&#45;&#45;X10 -->
<g id="edge32" class="edge">
<title>X9--X10</title>
<path fill="none" stroke="#000000" d="M339.7685,-2592.937C345.5811,-2581.626 353.1855,-2566.8282 359.0374,-2555.4407"/>
</g>
<!-- X10&#45;&#45;X11 -->
<g id="edge33" class="edge">
<title>X10--X11</title>
<path fill="none" stroke="#000000" d="M377.0055,-2520.937C382.9752,-2509.626 390.7851,-2494.8282 396.7952,-2483.4407"/>
</g>
<!-- X11&#45;&#45;X12 -->
<g id="edge34" class="edge">
<title>X11--X12</title>
<path fill="none" stroke="#000000" d="M415.0055,-2448.937C420.9752,-2437.626 428.7851,-2422.8282 434.7952,-2411.4407"/>
</g>
<!-- X12&#45;&#45;X13 -->
<g id="edge35" class="edge">
<title>X12--X13</title>
<path fill="none" stroke="#000000" d="M453.0055,-2376.937C458.9752,-2365.626 466.7851,-2350.8282 472.7952,-2339.4407"/>
</g>
<!-- X13&#45;&#45;X14 -->
<g id="edge36" class="edge">
<title>X13--X14</title>
<path fill="none" stroke="#000000" d="M491.0055,-2304.937C496.9752,-2293.626 504.7851,-2278.8282 510.7952,-2267.4407"/>
</g>
<!-- X14&#45;&#45;X15 -->
<g id="edge37" class="edge">
<title>X14--X15</title>
<path fill="none" stroke="#000000" d="M529.0055,-2232.937C534.9752,-2221.626 542.7851,-2206.8282 548.7952,-2195.4407"/>
</g>
<!-- X15&#45;&#45;X16 -->
<g id="edge38" class="edge">
<title>X15--X16</title>
<path fill="none" stroke="#000000" d="M567.0055,-2160.937C572.9752,-2149.626 580.7851,-2134.8282 586.7952,-2123.4407"/>
</g>
<!-- X16&#45;&#45;X17 -->
<g id="edge39" class="edge">
<title>X16--X17</title>
<path fill="none" stroke="#000000" d="M605.0055,-2088.937C610.9752,-2077.626 618.7851,-2062.8282 624.7952,-2051.4407"/>
</g>
<!-- X17&#45;&#45;X18 -->
<g id="edge40" class="edge">
<title>X17--X18</title>
<path fill="none" stroke="#000000" d="M643.0055,-2016.937C648.9752,-2005.626 656.7851,-1990.8282 662.7952,-1979.4407"/>
</g>
<!-- X18&#45;&#45;X19 -->
<g id="edge41" class="edge">
<title>X18--X19</title>
<path fill="none" stroke="#000000" d="M681.0055,-1944.937C686.9752,-1933.626 694.7851,-1918.8282 700.7952,-1907.4407"/>
</g>
<!-- X19&#45;&#45;X20 -->
<g id="edge42" class="edge">
<title>X19--X20</title>
<path fill="none" stroke="#000000" d="M719.0055,-1872.937C724.9752,-1861.626 732.7851,-1846.8282 738.7952,-1835.4407"/>
</g>
<!-- X20&#45;&#45;X21 -->
<g id="edge43" class="edge">
<title>X20--X21</title>
<path fill="none" stroke="#000000" d="M754.9214,-1800.2022C759.2615,-1789.0419 764.8333,-1774.7143 769.1583,-1763.593"/>
</g>
<!-- X22 -->
<g id="node24" class="node">
<title>X22</title>
<ellipse fill="none" stroke="#000000" cx="776" cy="-1674" rx="27.8306" ry="18"/>
<text text-anchor="middle" x="776" y="-1669.8" font-family="Times,serif" font-size="14.00" fill="#000000">X22</text>
</g>
<!-- X21&#45;&#45;X22 -->
<g id="edge44" class="edge">
<title>X21--X22</title>
<path fill="none" stroke="#000000" d="M776,-1727.8314C776,-1717 776,-1703.2876 776,-1692.4133"/>
</g>
<!-- L1 -->
<g id="node25" class="node">
<title>L1</title>
<ellipse fill="none" stroke="#000000" cx="823" cy="-1602" rx="27" ry="18"/>
<text text-anchor="middle" x="823" y="-1597.8" font-family="Times,serif" font-size="14.00" fill="#000000">L1</text>
</g>
<!-- X22&#45;&#45;L1 -->
<g id="edge45" class="edge">
<title>X22--L1</title>
<path fill="none" stroke="#000000" d="M786.9009,-1657.3008C794.4938,-1645.669 804.5782,-1630.2206 812.1582,-1618.6087"/>
</g>
<!-- X23 -->
<g id="node26" class="node">
<title>X23</title>
<ellipse fill="none" stroke="#000000" cx="710" cy="-1530" rx="27.8306" ry="18"/>
<text text-anchor="middle" x="710" y="-1525.8" font-family="Times,serif" font-size="14.00" fill="#000000">X23</text>
</g>
<!-- X22&#45;&#45;X23 -->
<g id="edge46" class="edge">
<title>X22--X23</title>
<path fill="none" stroke="#000000" d="M768.0389,-1656.6302C755.3534,-1628.9528 730.6926,-1575.1475 717.9894,-1547.4314"/>
</g>
<!-- L1&#45;&#45;X23 -->
<g id="edge47" class="edge">
<title>L1--X23</title>
<path fill="none" stroke="#000000" d="M803.3169,-1589.4586C782.703,-1576.324 750.5079,-1555.8104 729.8367,-1542.6393"/>
</g>
<!-- X24 -->
<g id="node27" class="node">
<title>X24</title>
<ellipse fill="none" stroke="#000000" cx="748" cy="-1458" rx="27.8306" ry="18"/>
<text text-anchor="middle" x="748" y="-1453.8" font-family="Times,serif" font-size="14.00" fill="#000000">X24</text>
</g>
<!-- L1&#45;&#45;X24 -->
<g id="edge48" class="edge">
<title>L1--X24</title>
<path fill="none" stroke="#000000" d="M812.1006,-1585.2595C805.4179,-1574.7362 796.8585,-1560.7786 790,-1548 776.7902,-1523.3878 763.4801,-1493.8848 755.4865,-1475.5369"/>
</g>
<!-- X25 -->
<g id="node28" class="node">
<title>X25</title>
<ellipse fill="none" stroke="#000000" cx="786" cy="-1386" rx="27.8306" ry="18"/>
<text text-anchor="middle" x="786" y="-1381.8" font-family="Times,serif" font-size="14.00" fill="#000000">X25</text>
</g>
<!-- L1&#45;&#45;X25 -->
<g id="edge49" class="edge">
<title>L1--X25</title>
<path fill="none" stroke="#000000" d="M819.909,-1583.9555C812.9444,-1543.2967 796.0891,-1444.8988 789.1082,-1404.1451"/>
</g>
<!-- X26 -->
<g id="node29" class="node">
<title>X26</title>
<ellipse fill="none" stroke="#000000" cx="824" cy="-1314" rx="27.8306" ry="18"/>
<text text-anchor="middle" x="824" y="-1309.8" font-family="Times,serif" font-size="14.00" fill="#000000">X26</text>
</g>
<!-- L1&#45;&#45;X26 -->
<g id="edge50" class="edge">
<title>L1--X26</title>
<path fill="none" stroke="#000000" d="M823.4167,-1584.0012C823.6389,-1573.5015 823.8889,-1560.0015 824,-1548 824.7447,-1467.5659 824.3374,-1371.5732 824.1147,-1332.2052"/>
</g>
<!-- X27 -->
<g id="node30" class="node">
<title>X27</title>
<ellipse fill="none" stroke="#000000" cx="862" cy="-1242" rx="27.8306" ry="18"/>
<text text-anchor="middle" x="862" y="-1237.8" font-family="Times,serif" font-size="14.00" fill="#000000">X27</text>
</g>
<!-- L1&#45;&#45;X27 -->
<g id="edge51" class="edge">
<title>L1--X27</title>
<path fill="none" stroke="#000000" d="M834.2614,-1585.5531C850.8729,-1559.6458 880,-1507.2038 880,-1458 880,-1458 880,-1458 880,-1386 880,-1340.3979 871.0019,-1287.2954 865.7296,-1260.0947"/>
</g>
<!-- X28 -->
<g id="node31" class="node">
<title>X28</title>
<ellipse fill="none" stroke="#000000" cx="900" cy="-1170" rx="27.8306" ry="18"/>
<text text-anchor="middle" x="900" y="-1165.8" font-family="Times,serif" font-size="14.00" fill="#000000">X28</text>
</g>
<!-- L1&#45;&#45;X28 -->
<g id="edge52" class="edge">
<title>L1--X28</title>
<path fill="none" stroke="#000000" d="M840.4245,-1588.0836C867.8502,-1564.4817 918,-1513.7076 918,-1458 918,-1458 918,-1458 918,-1314 918,-1268.3979 909.0019,-1215.2954 903.7296,-1188.0947"/>
</g>
<!-- X29 -->
<g id="node32" class="node">
<title>X29</title>
<ellipse fill="none" stroke="#000000" cx="928" cy="-1098" rx="27.8306" ry="18"/>
<text text-anchor="middle" x="928" y="-1093.8" font-family="Times,serif" font-size="14.00" fill="#000000">X29</text>
</g>
<!-- L1&#45;&#45;X29 -->
<g id="edge53" class="edge">
<title>L1--X29</title>
<path fill="none" stroke="#000000" d="M844.9622,-1591.1147C882.738,-1570.6618 956,-1522.6604 956,-1458 956,-1458 956,-1458 956,-1242 956,-1195.9025 942.003,-1143.0051 933.8016,-1115.9672"/>
</g>
<!-- X23&#45;&#45;X24 -->
<g id="edge54" class="edge">
<title>X23--X24</title>
<path fill="none" stroke="#000000" d="M719.0055,-1512.937C724.9752,-1501.626 732.7851,-1486.8282 738.7952,-1475.4407"/>
</g>
<!-- X24&#45;&#45;X25 -->
<g id="edge55" class="edge">
<title>X24--X25</title>
<path fill="none" stroke="#000000" d="M757.0055,-1440.937C762.9752,-1429.626 770.7851,-1414.8282 776.7952,-1403.4407"/>
</g>
<!-- X25&#45;&#45;X26 -->
<g id="edge56" class="edge">
<title>X25--X26</title>
<path fill="none" stroke="#000000" d="M795.0055,-1368.937C800.9752,-1357.626 808.7851,-1342.8282 814.7952,-1331.4407"/>
</g>
<!-- X26&#45;&#45;X27 -->
<g id="edge57" class="edge">
<title>X26--X27</title>
<path fill="none" stroke="#000000" d="M833.0055,-1296.937C838.9752,-1285.626 846.7851,-1270.8282 852.7952,-1259.4407"/>
</g>
<!-- X27&#45;&#45;X28 -->
<g id="edge58" class="edge">
<title>X27--X28</title>
<path fill="none" stroke="#000000" d="M871.0055,-1224.937C876.9752,-1213.626 884.7851,-1198.8282 890.7952,-1187.4407"/>
</g>
<!-- X28&#45;&#45;X29 -->
<g id="edge59" class="edge">
<title>X28--X29</title>
<path fill="none" stroke="#000000" d="M906.9214,-1152.2022C911.2615,-1141.0419 916.8333,-1126.7143 921.1583,-1115.593"/>
</g>
<!-- X30 -->
<g id="node33" class="node">
<title>X30</title>
<ellipse fill="none" stroke="#000000" cx="928" cy="-1026" rx="27.8306" ry="18"/>
<text text-anchor="middle" x="928" y="-1021.8" font-family="Times,serif" font-size="14.00" fill="#000000">X30</text>
</g>
<!-- X29&#45;&#45;X30 -->
<g id="edge60" class="edge">
<title>X29--X30</title>
<path fill="none" stroke="#000000" d="M928,-1079.8314C928,-1069 928,-1055.2876 928,-1044.4133"/>
</g>
<!-- L2 -->
<g id="node34" class="node">
<title>L2</title>
<ellipse fill="none" stroke="#000000" cx="994" cy="-954" rx="27" ry="18"/>
<text text-anchor="middle" x="994" y="-949.8" font-family="Times,serif" font-size="14.00" fill="#000000">L2</text>
</g>
<!-- X30&#45;&#45;L2 -->
<g id="edge61" class="edge">
<title>X30--L2</title>
<path fill="none" stroke="#000000" d="M942.321,-1010.3771C953.3914,-998.3003 968.6436,-981.6616 979.7069,-969.5924"/>
</g>
<!-- X31 -->
<g id="node35" class="node">
<title>X31</title>
<ellipse fill="none" stroke="#000000" cx="862" cy="-882" rx="27.8306" ry="18"/>
<text text-anchor="middle" x="862" y="-877.8" font-family="Times,serif" font-size="14.00" fill="#000000">X31</text>
</g>
<!-- X30&#45;&#45;X31 -->
<g id="edge62" class="edge">
<title>X30--X31</title>
<path fill="none" stroke="#000000" d="M920.0389,-1008.6302C907.3534,-980.9528 882.6926,-927.1475 869.9894,-899.4314"/>
</g>
<!-- L2&#45;&#45;X31 -->
<g id="edge63" class="edge">
<title>L2--X31</title>
<path fill="none" stroke="#000000" d="M973.0842,-942.5914C948.5129,-929.1889 907.9722,-907.0758 883.255,-893.5937"/>
</g>
<!-- X32 -->
<g id="node36" class="node">
<title>X32</title>
<ellipse fill="none" stroke="#000000" cx="900" cy="-810" rx="27.8306" ry="18"/>
<text text-anchor="middle" x="900" y="-805.8" font-family="Times,serif" font-size="14.00" fill="#000000">X32</text>
</g>
<!-- L2&#45;&#45;X32 -->
<g id="edge64" class="edge">
<title>L2--X32</title>
<path fill="none" stroke="#000000" d="M977.5196,-939.5959C966.4813,-929.3425 952.1648,-914.8076 942,-900 926.0938,-876.8286 913.4159,-846.6776 906.3038,-827.829"/>
</g>
<!-- X33 -->
<g id="node37" class="node">
<title>X33</title>
<ellipse fill="none" stroke="#000000" cx="938" cy="-738" rx="27.8306" ry="18"/>
<text text-anchor="middle" x="938" y="-733.8" font-family="Times,serif" font-size="14.00" fill="#000000">X33</text>
</g>
<!-- L2&#45;&#45;X33 -->
<g id="edge65" class="edge">
<title>L2--X33</title>
<path fill="none" stroke="#000000" d="M989.3218,-935.9555C978.7544,-895.1954 953.1427,-796.4077 942.6255,-755.8413"/>
</g>
<!-- X34 -->
<g id="node38" class="node">
<title>X34</title>
<ellipse fill="none" stroke="#000000" cx="976" cy="-666" rx="27.8306" ry="18"/>
<text text-anchor="middle" x="976" y="-661.8" font-family="Times,serif" font-size="14.00" fill="#000000">X34</text>
</g>
<!-- L2&#45;&#45;X34 -->
<g id="edge66" class="edge">
<title>L2--X34</title>
<path fill="none" stroke="#000000" d="M992.874,-935.9843C989.6415,-884.2634 980.3576,-735.7213 977.1256,-684.0089"/>
</g>
<!-- X35 -->
<g id="node39" class="node">
<title>X35</title>
<ellipse fill="none" stroke="#000000" cx="1014" cy="-594" rx="27.8306" ry="18"/>
<text text-anchor="middle" x="1014" y="-589.8" font-family="Times,serif" font-size="14.00" fill="#000000">X35</text>
</g>
<!-- L2&#45;&#45;X35 -->
<g id="edge67" class="edge">
<title>L2--X35</title>
<path fill="none" stroke="#000000" d="M1001.6899,-936.6554C1012.7936,-909.9874 1032,-857.0576 1032,-810 1032,-810 1032,-810 1032,-738 1032,-692.3979 1023.0019,-639.2954 1017.7296,-612.0947"/>
</g>
<!-- X36 -->
<g id="node40" class="node">
<title>X36</title>
<ellipse fill="none" stroke="#000000" cx="1052" cy="-522" rx="27.8306" ry="18"/>
<text text-anchor="middle" x="1052" y="-517.8" font-family="Times,serif" font-size="14.00" fill="#000000">X36</text>
</g>
<!-- L2&#45;&#45;X36 -->
<g id="edge68" class="edge">
<title>L2--X36</title>
<path fill="none" stroke="#000000" d="M1008.6536,-938.5784C1030.7383,-913.6483 1070,-862.0136 1070,-810 1070,-810 1070,-810 1070,-666 1070,-620.3979 1061.0019,-567.2954 1055.7296,-540.0947"/>
</g>
<!-- X37 -->
<g id="node41" class="node">
<title>X37</title>
<ellipse fill="none" stroke="#000000" cx="1090" cy="-450" rx="27.8306" ry="18"/>
<text text-anchor="middle" x="1090" y="-445.8" font-family="Times,serif" font-size="14.00" fill="#000000">X37</text>
</g>
<!-- L2&#45;&#45;X37 -->
<g id="edge69" class="edge">
<title>L2--X37</title>
<path fill="none" stroke="#000000" d="M1013.8573,-941.6058C1046.519,-919.5062 1108,-869.9455 1108,-810 1108,-810 1108,-810 1108,-594 1108,-548.3979 1099.0019,-495.2954 1093.7296,-468.0947"/>
</g>
<!-- X38 -->
<g id="node42" class="node">
<title>X38</title>
<ellipse fill="none" stroke="#000000" cx="1118" cy="-378" rx="27.8306" ry="18"/>
<text text-anchor="middle" x="1118" y="-373.8" font-family="Times,serif" font-size="14.00" fill="#000000">X38</text>
</g>
<!-- L2&#45;&#45;X38 -->
<g id="edge70" class="edge">
<title>L2--X38</title>
<path fill="none" stroke="#000000" d="M1017.4169,-944.7317C1060.0541,-926.1366 1146,-879.9751 1146,-810 1146,-810 1146,-810 1146,-522 1146,-475.9025 1132.003,-423.0051 1123.8016,-395.9672"/>
</g>
<!-- X31&#45;&#45;X32 -->
<g id="edge71" class="edge">
<title>X31--X32</title>
<path fill="none" stroke="#000000" d="M871.0055,-864.937C876.9752,-853.626 884.7851,-838.8282 890.7952,-827.4407"/>
</g>
<!-- X32&#45;&#45;X33 -->
<g id="edge72" class="edge">
<title>X32--X33</title>
<path fill="none" stroke="#000000" d="M909.0055,-792.937C914.9752,-781.626 922.7851,-766.8282 928.7952,-755.4407"/>
</g>
<!-- X33&#45;&#45;X34 -->
<g id="edge73" class="edge">
<title>X33--X34</title>
<path fill="none" stroke="#000000" d="M947.0055,-720.937C952.9752,-709.626 960.7851,-694.8282 966.7952,-683.4407"/>
</g>
<!-- X34&#45;&#45;X35 -->
<g id="edge74" class="edge">
<title>X34--X35</title>
<path fill="none" stroke="#000000" d="M985.0055,-648.937C990.9752,-637.626 998.7851,-622.8282 1004.7952,-611.4407"/>
</g>
<!-- X35&#45;&#45;X36 -->
<g id="edge75" class="edge">
<title>X35--X36</title>
<path fill="none" stroke="#000000" d="M1023.0055,-576.937C1028.9752,-565.626 1036.7851,-550.8282 1042.7952,-539.4407"/>
</g>
<!-- X36&#45;&#45;X37 -->
<g id="edge76" class="edge">
<title>X36--X37</title>
<path fill="none" stroke="#000000" d="M1061.0055,-504.937C1066.9752,-493.626 1074.7851,-478.8282 1080.7952,-467.4407"/>
</g>
<!-- X37&#45;&#45;X38 -->
<g id="edge77" class="edge">
<title>X37--X38</title>
<path fill="none" stroke="#000000" d="M1096.9214,-432.2022C1101.2615,-421.0419 1106.8333,-406.7143 1111.1583,-395.593"/>
</g>
<!-- X39 -->
<g id="node43" class="node">
<title>X39</title>
<ellipse fill="none" stroke="#000000" cx="1118" cy="-306" rx="27.8306" ry="18"/>
<text text-anchor="middle" x="1118" y="-301.8" font-family="Times,serif" font-size="14.00" fill="#000000">X39</text>
</g>
<!-- X38&#45;&#45;X39 -->
<g id="edge78" class="edge">
<title>X38--X39</title>
<path fill="none" stroke="#000000" d="M1118,-359.8314C1118,-349 1118,-335.2876 1118,-324.4133"/>
</g>
<!-- L3 -->
<g id="node44" class="node">
<title>L3</title>
<ellipse fill="none" stroke="#000000" cx="1146" cy="-234" rx="27" ry="18"/>
<text text-anchor="middle" x="1146" y="-229.8" font-family="Times,serif" font-size="14.00" fill="#000000">L3</text>
</g>
<!-- X39&#45;&#45;L3 -->
<g id="edge79" class="edge">
<title>X39--L3</title>
<path fill="none" stroke="#000000" d="M1124.9214,-288.2022C1129.2615,-277.0419 1134.8333,-262.7143 1139.1583,-251.593"/>
</g>
<!-- X40 -->
<g id="node45" class="node">
<title>X40</title>
<ellipse fill="none" stroke="#000000" cx="1091" cy="-162" rx="27.8306" ry="18"/>
<text text-anchor="middle" x="1091" y="-157.8" font-family="Times,serif" font-size="14.00" fill="#000000">X40</text>
</g>
<!-- X39&#45;&#45;X40 -->
<g id="edge80" class="edge">
<title>X39--X40</title>
<path fill="none" stroke="#000000" d="M1114.635,-288.0535C1109.4611,-260.4592 1099.6067,-207.9026 1094.4074,-180.1727"/>
</g>
<!-- L3&#45;&#45;X40 -->
<g id="edge81" class="edge">
<title>L3--X40</title>
<path fill="none" stroke="#000000" d="M1133.5196,-217.6621C1124.5186,-205.8788 1112.4207,-190.0416 1103.431,-178.2733"/>
</g>
<!-- X41 -->
<g id="node46" class="node">
<title>X41</title>
<ellipse fill="none" stroke="#000000" cx="1129" cy="-90" rx="27.8306" ry="18"/>
<text text-anchor="middle" x="1129" y="-85.8" font-family="Times,serif" font-size="14.00" fill="#000000">X41</text>
</g>
<!-- L3&#45;&#45;X41 -->
<g id="edge82" class="edge">
<title>L3--X41</title>
<path fill="none" stroke="#000000" d="M1143.8813,-216.0535C1140.6237,-188.4592 1134.4191,-135.9026 1131.1454,-108.1727"/>
</g>
<!-- X42 -->
<g id="node47" class="node">
<title>X42</title>
<ellipse fill="none" stroke="#000000" cx="1157" cy="-18" rx="27.8306" ry="18"/>
<text text-anchor="middle" x="1157" y="-13.8" font-family="Times,serif" font-size="14.00" fill="#000000">X42</text>
</g>
<!-- L3&#45;&#45;X42 -->
<g id="edge83" class="edge">
<title>L3--X42</title>
<path fill="none" stroke="#000000" d="M1150.6435,-216.0694C1157.8197,-186.2461 1170.3475,-124.5301 1166,-72 1164.9966,-59.8759 1162.7466,-46.3759 1160.7474,-35.9069"/>
</g>
<!-- X40&#45;&#45;X41 -->
<g id="edge84" class="edge">
<title>X40--X41</title>
<path fill="none" stroke="#000000" d="M1100.0055,-144.937C1105.9752,-133.626 1113.7851,-118.8282 1119.7952,-107.4407"/>
</g>
<!-- X41&#45;&#45;X42 -->
<g id="edge85" class="edge">
<title>X41--X42</title>
<path fill="none" stroke="#000000" d="M1135.9214,-72.2022C1140.2615,-61.0419 1145.8333,-46.7143 1150.1583,-35.593"/>
</g>
</g>
</svg>