<?xml version="1.0" encoding="UTF-8" standalone="no"?>
<!DOCTYPE svg PUBLIC "-//W3C//DTD SVG 1.1//EN" "http://www.w3.org/Graphics/SVG/1.1/DTD/svg11.dtd">
<!-- Generated by graphviz version 2.40.1 (20161225.0304)
 -->
<!-- Title: %0 Pages: 1 -->
<svg width="794pt" height="2492pt" viewBox="0.00 0.00 793.66 2492.00" xmlns="http://www.w3.org/2000/svg" xmlns:xlink="http://www.w3.org/1999/xlink">
<g id="graph0" class="graph" transform="scale(1 1) rotate(0) translate(4 2488)">
<title>%0</title>
<polygon fill="#ffffff" stroke="transparent" points="-4,4 -4,-2488 789.6648,-2488 789.6648,4 -4,4"/>
<!-- X0 -->
<g id="node1" class="node">
<title>X0</title>
<ellipse fill="none" stroke="#000000" cx="149" cy="-2466" rx="27" ry="18"/>
<text text-anchor="middle" x="149" y="-2461.8" font-family="Times,serif" font-size="14.00" fill="#000000">X0</text>
</g>
<!-- L0 -->
<g id="node2" class="node">
<title>L0</title>
<ellipse fill="none" stroke="#000000" cx="272" cy="-2394" rx="27" ry="18"/>
<text text-anchor="middle" x="272" y="-2389.8" font-family="Times,serif" font-size="14.00" fill="#000000">L0</text>
</g>
<!-- X0&#45;&#45;L0 -->
<g id="edge1" class="edge">
<title>X0--L0</title>
<path fill="none" stroke="#000000" d="M169.3109,-2454.1107C192.1009,-2440.7702 228.8566,-2419.2547 251.6589,-2405.907"/>
</g>
<!-- X1 -->
<g id="node3" class="node">
<title>X1</title>
<ellipse fill="none" stroke="#000000" cx="27" cy="-2322" rx="27" ry="18"/>
<text text-anchor="middle" x="27" y="-2317.8" font-family="Times,serif" font-size="14.00" fill="#000000">X1</text>
</g>
<!-- X0&#45;&#45;X1 -->
<g id="edge2" class="edge">
<title>X0--X1</title>
<path fill="none" stroke="#000000" d="M135.7116,-2450.3154C112.3674,-2422.7615 64.2381,-2365.9532 40.6444,-2338.1049"/>
</g>
<!-- L0&#45;&#45;X1 -->
<g id="edge3" class="edge">
<title>L0--X1</title>
<path fill="none" stroke="#000000" d="M246.1737,-2388.516C207.0776,-2379.9126 130.7718,-2361.9388 68,-2340 61.8356,-2337.8455 55.3023,-2335.167 49.3059,-2332.5402"/>
</g>
<!-- X2 -->
<g id="node4" class="node">
<title>X2</title>
<ellipse fill="none" stroke="#000000" cx="65" cy="-2250" rx="27" ry="18"/>
<text text-anchor="middle" x="65" y="-2245.8" font-family="Times,serif" font-size="14.00" fill="#000000">X2</text>
</g>
<!-- L0&#45;&#45;X2 -->
<g id="edge4" class="edge">
<title>L0--X2</title>
<path fill="none" stroke="#000000" d="M245.1548,-2391.8838C209.3265,-2387.7277 145.7849,-2375.5268 106,-2340 84.6123,-2320.9014 73.6812,-2288.4208 68.6657,-2268.145"/>
</g>
<!-- X3 -->
<g id="node5" class="node">
<title>X3</title>
<ellipse fill="none" stroke="#000000" cx="103" cy="-2178" rx="27" ry="18"/>
<text text-anchor="middle" x="103" y="-2173.8" font-family="Times,serif" font-size="14.00" fill="#000000">X3</text>
</g>
<!-- L0&#45;&#45;X3 -->
<g id="edge5" class="edge">
<title>L0--X3</title>
<path fill="none" stroke="#000000" d="M245.5995,-2389.9838C216.4422,-2384.1415 170.168,-2370.4613 144,-2340 107.9862,-2298.0775 102.8675,-2228.8408 102.6058,-2196.1554"/>
</g>
<!-- X4 -->
<g id="node6" class="node">
<title>X4</title>
<ellipse fill="none" stroke="#000000" cx="141" cy="-2106" rx="27" ry="18"/>
<text text-anchor="middle" x="141" y="-2101.8" font-family="Times,serif" font-size="14.00" fill="#000000">X4</text>
</g>
<!-- L0&#45;&#45;X4 -->
<g id="edge6" class="edge">
<title>L0--X4</title>
<path fill="none" stroke="#000000" d="M247.6822,-2385.9694C226.85,-2377.7798 197.7858,-2362.9795 182,-2340 157.7711,-2304.7298 145.8831,-2172.9011 142.2483,-2124.2163"/>
</g>
<!-- X5 -->
<g id="node7" class="node">
<title>X5</title>
<ellipse fill="none" stroke="#000000" cx="179" cy="-2034" rx="27" ry="18"/>
<text text-anchor="middle" x="179" y="-2029.8" font-family="Times,serif" font-size="14.00" fill="#000000">X5</text>
</g>
<!-- L0&#45;&#45;X5 -->
<g id="edge7" class="edge">
<title>L0--X5</title>
<path fill="none" stroke="#000000" d="M254.6649,-2380.1288C243.2451,-2370.1134 228.8239,-2355.6438 220,-2340 199.6618,-2303.9426 196,-2291.3978 196,-2250 196,-2250 196,-2250 196,-2178 196,-2132.4358 187.5018,-2079.3176 182.5224,-2052.1045"/>
</g>
<!-- X6 -->
<g id="node8" class="node">
<title>X6</title>
<ellipse fill="none" stroke="#000000" cx="217" cy="-1962" rx="27" ry="18"/>
<text text-anchor="middle" x="217" y="-1957.8" font-family="Times,serif" font-size="14.00" fill="#000000">X6</text>
</g>
<!-- L0&#45;&#45;X6 -->
<g id="edge8" class="edge">
<title>L0--X6</title>
<path fill="none" stroke="#000000" d="M264.3101,-2376.6554C253.2064,-2349.9874 234,-2297.0576 234,-2250 234,-2250 234,-2250 234,-2106 234,-2060.4358 225.5018,-2007.3176 220.5224,-1980.1045"/>
</g>
<!-- X7 -->
<g id="node9" class="node">
<title>X7</title>
<ellipse fill="none" stroke="#000000" cx="255" cy="-1890" rx="27" ry="18"/>
<text text-anchor="middle" x="255" y="-1885.8" font-family="Times,serif" font-size="14.00" fill="#000000">X7</text>
</g>
<!-- L0&#45;&#45;X7 -->
<g id="edge9" class="edge">
<title>L0--X7</title>
<path fill="none" stroke="#000000" d="M272,-2375.8146C272,-2348.4983 272,-2295.25 272,-2250 272,-2250 272,-2250 272,-2034 272,-1988.4358 263.5018,-1935.3176 258.5224,-1908.1045"/>
</g>
<!-- X8 -->
<g id="node10" class="node">
<title>X8</title>
<ellipse fill="none" stroke="#000000" cx="293" cy="-1818" rx="27" ry="18"/>
<text text-anchor="middle" x="293" y="-1813.8" font-family="Times,serif" font-size="14.00" fill="#000000">X8</text>
</g>
<!-- L0&#45;&#45;X8 -->
<g id="edge10" class="edge">
<title>L0--X8</title>
<path fill="none" stroke="#000000" d="M279.6899,-2376.6554C290.7936,-2349.9874 310,-2297.0576 310,-2250 310,-2250 310,-2250 310,-1962 310,-1916.4358 301.5018,-1863.3176 296.5224,-1836.1045"/>
</g>
<!-- X9 -->
<g id="node11" class="node">
<title>X9</title>
<ellipse fill="none" stroke="#000000" cx="331" cy="-1746" rx="27" ry="18"/>
<text text-anchor="middle" x="331" y="-1741.8" font-family="Times,serif" font-size="14.00" fill="#000000">X9</text>
</g>
<!-- L0&#45;&#45;X9 -->
<g id="edge11" class="edge">
<title>L0--X9</title>
<path fill="none" stroke="#000000" d="M286.6536,-2378.5784C308.7383,-2353.6483 348,-2302.0136 348,-2250 348,-2250 348,-2250 348,-1890 348,-1844.4358 339.5018,-1791.3176 334.5224,-1764.1045"/>
</g>
<!-- X10 -->
<g id="node12" class="node">
<title>X10</title>
<ellipse fill="none" stroke="#000000" cx="368" cy="-1674" rx="27.8306" ry="18"/>
<text text-anchor="middle" x="368" y="-1669.8" font-family="Times,serif" font-size="14.00" fill="#000000">X10</text>
</g>
<!-- L0&#45;&#45;X10 -->
<g id="edge12" class="edge">
<title>L0--X10</title>
<path fill="none" stroke="#000000" d="M291.8573,-2381.6058C324.519,-2359.5062 386,-2309.9455 386,-2250 386,-2250 386,-2250 386,-1818 386,-1772.3979 377.0019,-1719.2954 371.7296,-1692.0947"/>
</g>
<!-- X11 -->
<g id="node13" class="node">
<title>X11</title>
<ellipse fill="none" stroke="#000000" cx="406" cy="-1602" rx="27.8306" ry="18"/>
<text text-anchor="middle" x="406" y="-1597.8" font-family="Times,serif" font-size="14.00" fill="#000000">X11</text>
</g>
<!-- L0&#45;&#45;X11 -->
<g id="edge13" class="edge">
<title>L0--X11</title>
<path fill="none" stroke="#000000" d="M295.4169,-2384.7317C338.0541,-2366.1366 424,-2319.9751 424,-2250 424,-2250 424,-2250 424,-1746 424,-1700.3979 415.0019,-1647.2954 409.7296,-1620.0947"/>
</g>
<!-- X12 -->
<g id="node14" class="node">
<title>X12</title>
<ellipse fill="none" stroke="#000000" cx="444" cy="-1530" rx="27.8306" ry="18"/>
<text text-anchor="middle" x="444" y="-1525.8" font-family="Times,serif" font-size="14.00" fill="#000000">X12</text>
</g>
<!-- L0&#45;&#45;X12 -->
<g id="edge14" class="edge">
<title>L0--X12</title>
<path fill="none" stroke="#000000" d="M297.6242,-2387.5723C349.4861,-2372.8572 462,-2331.5371 462,-2250 462,-2250 462,-2250 462,-1674 462,-1628.3979 453.0019,-1575.2954 447.7296,-1548.0947"/>
</g>
<!-- X13 -->
<g id="node15" class="node">
<title>X13</title>
<ellipse fill="none" stroke="#000000" cx="482" cy="-1458" rx="27.8306" ry="18"/>
<text text-anchor="middle" x="482" y="-1453.8" font-family="Times,serif" font-size="14.00" fill="#000000">X13</text>
</g>
<!-- L0&#45;&#45;X13 -->
<g id="edge15" class="edge">
<title>L0--X13</title>
<path fill="none" stroke="#000000" d="M298.6007,-2390.0262C358.7446,-2379.3806 500,-2344.3364 500,-2250 500,-2250 500,-2250 500,-1602 500,-1556.3979 491.0019,-1503.2954 485.7296,-1476.0947"/>
</g>
<!-- X14 -->
<g id="node16" class="node">
<title>X14</title>
<ellipse fill="none" stroke="#000000" cx="510" cy="-1386" rx="27.8306" ry="18"/>
<text text-anchor="middle" x="510" y="-1381.8" font-family="Times,serif" font-size="14.00" fill="#000000">X14</text>
</g>
<!-- L0&#45;&#45;X14 -->
<g id="edge16" class="edge">
<title>L0--X14</title>
<path fill="none" stroke="#000000" d="M298.9693,-2391.9982C366.5943,-2385.3668 538,-2357.9148 538,-2250 538,-2250 538,-2250 538,-1530 538,-1483.9025 524.003,-1431.0051 515.8016,-1403.9672"/>
</g>
<!-- X1&#45;&#45;X2 -->
<g id="edge17" class="edge">
<title>X1--X2</title>
<path fill="none" stroke="#000000" d="M36.0055,-2304.937C41.9752,-2293.626 49.7851,-2278.8282 55.7952,-2267.4407"/>
</g>
<!-- X2&#45;&#45;X3 -->
<g id="edge18" class="edge">
<title>X2--X3</title>
<path fill="none" stroke="#000000" d="M74.0055,-2232.937C79.9752,-2221.626 87.7851,-2206.8282 93.7952,-2195.4407"/>
</g>
<!-- X3&#45;&#45;X4 -->
<g id="edge19" class="edge">
<title>X3--X4</title>
<path fill="none" stroke="#000000" d="M112.0055,-2160.937C117.9752,-2149.626 125.7851,-2134.8282 131.7952,-2123.4407"/>
</g>
<!-- X4&#45;&#45;X5 -->
<g id="edge20" class="edge">
<title>X4--X5</title>
<path fill="none" stroke="#000000" d="M150.0055,-2088.937C155.9752,-2077.626 163.7851,-2062.8282 169.7952,-2051.4407"/>
</g>
<!-- X5&#45;&#45;X6 -->
<g id="edge21" class="edge">
<title>X5--X6</title>
<path fill="none" stroke="#000000" d="M188.0055,-2016.937C193.9752,-2005.626 201.7851,-1990.8282 207.7952,-1979.4407"/>
</g>
<!-- X6&#45;&#45;X7 -->
<g id="edge22" class="edge">
<title>X6--X7</title>
<path fill="none" stroke="#000000" d="M226.0055,-1944.937C231.9752,-1933.626 239.7851,-1918.8282 245.7952,-1907.4407"/>
</g>
<!-- X7&#45;&#45;X8 -->
<g id="edge23" class="edge">
<title>X7--X8</title>
<path fill="none" stroke="#000000" d="M264.0055,-1872.937C269.9752,-1861.626 277.7851,-1846.8282 283.7952,-1835.4407"/>
</g>
<!-- X8&#45;&#45;X9 -->
<g id="edge24" class="edge">
<title>X8--X9</title>
<path fill="none" stroke="#000000" d="M302.0055,-1800.937C307.9752,-1789.626 315.7851,-1774.8282 321.7952,-1763.4407"/>
</g>
<!-- X9&#45;&#45;X10 -->
<g id="edge25" class="edge">
<title>X9--X10</title>
<path fill="none" stroke="#000000" d="M339.7685,-1728.937C345.5811,-1717.626 353.1855,-1702.8282 359.0374,-1691.4407"/>
</g>
<!-- X10&#45;&#45;X11 -->
<g id="edge26" class="edge">
<title>X10--X11</title>
<path fill="none" stroke="#000000" d="M377.0055,-1656.937C382.9752,-1645.626 390.7851,-1630.8282 396.7952,-1619.4407"/>
</g>
<!-- X11&#45;&#45;X12 -->
<g id="edge27" class="edge">
<title>X11--X12</title>
<path fill="none" stroke="#000000" d="M415.0055,-1584.937C420.9752,-1573.626 428.7851,-1558.8282 434.7952,-1547.4407"/>
</g>
<!-- X12&#45;&#45;X13 -->
<g id="edge28" class="edge">
<title>X12--X13</title>
<path fill="none" stroke="#000000" d="M453.0055,-1512.937C458.9752,-1501.626 466.7851,-1486.8282 472.7952,-1475.4407"/>
</g>
<!-- X13&#45;&#45;X14 -->
<g id="edge29" class="edge">
<title>X13--X14</title>
<path fill="none" stroke="#000000" d="M488.9214,-1440.2022C493.2615,-1429.0419 498.8333,-1414.7143 503.1583,-1403.593"/>
</g>
<!-- X15 -->
<g id="node17" class="node">
<title>X15</title>
<ellipse fill="none" stroke="#000000" cx="510" cy="-1314" rx="27.8306" ry="18"/>
<text text-anchor="middle" x="510" y="-1309.8" font-family="Times,serif" font-size="14.00" fill="#000000">X15</text>
</g>
<!-- X14&#45;&#45;X15 -->
<g id="edge30" class="edge">
<title>X14--X15</title>
<path fill="none" stroke="#000000" d="M510,-1367.8314C510,-1357 510,-1343.2876 510,-1332.4133"/>
</g>
<!-- L1 -->
<g id="node18" class="node">
<title>L1</title>
<ellipse fill="none" stroke="#000000" cx="557" cy="-1242" rx="27" ry="18"/>
<text text-anchor="middle" x="557" y="-1237.8" font-family="Times,serif" font-size="14.00" fill="#000000">L1</text>
</g>
<!-- X15&#45;&#45;L1 -->
<g id="edge31" class="edge">
<title>X15--L1</title>
<path fill="none" stroke="#000000" d="M520.9009,-1297.3008C528.4938,-1285.669 538.5782,-1270.2206 546.1582,-1258.6087"/>
</g>
<!-- X16 -->
<g id="node19" class="node">
<title>X16</title>
<ellipse fill="none" stroke="#000000" cx="482" cy="-1170" rx="27.8306" ry="18"/>
<text text-anchor="middle" x="482" y="-1165.8" font-family="Times,serif" font-size="14.00" fill="#000000">X16</text>
</g>
<!-- X15&#45;&#45;X16 -->
<g id="edge32" class="edge">
<title>X15--X16</title>
<path fill="none" stroke="#000000" d="M506.5104,-1296.0535C501.1449,-1268.4592 490.9255,-1215.9026 485.5336,-1188.1727"/>
</g>
<!-- L1&#45;&#45;X16 -->
<g id="edge33" class="edge">
<title>L1--X16</title>
<path fill="none" stroke="#000000" d="M541.46,-1227.0816C528.6739,-1214.807 510.6289,-1197.4838 497.7782,-1185.147"/>
</g>
<!-- X17 -->
<g id="node20" class="node">
<title>X17</title>
<ellipse fill="none" stroke="#000000" cx="520" cy="-1098" rx="27.8306" ry="18"/>
<text text-anchor="middle" x="520" y="-1093.8" font-family="Times,serif" font-size="14.00" fill="#000000">X17</text>
</g>
<!-- L1&#45;&#45;X17 -->
<g id="edge34" class="edge">
<title>L1--X17</title>
<path fill="none" stroke="#000000" d="M552.3887,-1224.0535C545.2986,-1196.4592 531.7944,-1143.9026 524.6694,-1116.1727"/>
</g>
<!-- X18 -->
<g id="node21" class="node">
<title>X18</title>
<ellipse fill="none" stroke="#000000" cx="558" cy="-1026" rx="27.8306" ry="18"/>
<text text-anchor="middle" x="558" y="-1021.8" font-family="Times,serif" font-size="14.00" fill="#000000">X18</text>
</g>
<!-- L1&#45;&#45;X18 -->
<g id="edge35" class="edge">
<title>L1--X18</title>
<path fill="none" stroke="#000000" d="M557.0835,-1223.9555C557.2718,-1183.2967 557.7273,-1084.8988 557.916,-1044.1451"/>
</g>
<!-- X19 -->
<g id="node22" class="node">
<title>X19</title>
<ellipse fill="none" stroke="#000000" cx="596" cy="-954" rx="27.8306" ry="18"/>
<text text-anchor="middle" x="596" y="-949.8" font-family="Times,serif" font-size="14.00" fill="#000000">X19</text>
</g>
<!-- L1&#45;&#45;X19 -->
<g id="edge36" class="edge">
<title>L1--X19</title>
<path fill="none" stroke="#000000" d="M562.0672,-1224.0944C564.9229,-1213.6259 568.4229,-1200.1259 571,-1188 584.4881,-1124.5347 589.2893,-1108.631 595,-1044 597.1868,-1019.2511 597.0429,-990.5268 596.62,-972.3124"/>
</g>
<!-- X20 -->
<g id="node23" class="node">
<title>X20</title>
<ellipse fill="none" stroke="#000000" cx="624" cy="-882" rx="27.8306" ry="18"/>
<text text-anchor="middle" x="624" y="-877.8" font-family="Times,serif" font-size="14.00" fill="#000000">X20</text>
</g>
<!-- L1&#45;&#45;X20 -->
<g id="edge37" class="edge">
<title>L1--X20</title>
<path fill="none" stroke="#000000" d="M574.4245,-1228.0836C601.8502,-1204.4817 652,-1153.7076 652,-1098 652,-1098 652,-1098 652,-1026 652,-979.9025 638.003,-927.0051 629.8016,-899.9672"/>
</g>
<!-- X16&#45;&#45;X17 -->
<g id="edge38" class="edge">
<title>X16--X17</title>
<path fill="none" stroke="#000000" d="M491.0055,-1152.937C496.9752,-1141.626 504.7851,-1126.8282 510.7952,-1115.4407"/>
</g>
<!-- X17&#45;&#45;X18 -->
<g id="edge39" class="edge">
<title>X17--X18</title>
<path fill="none" stroke="#000000" d="M529.0055,-1080.937C534.9752,-1069.626 542.7851,-1054.8282 548.7952,-1043.4407"/>
</g>
<!-- X18&#45;&#45;X19 -->
<g id="edge40" class="edge">
<title>X18--X19</title>
<path fill="none" stroke="#000000" d="M567.0055,-1008.937C572.9752,-997.626 580.7851,-982.8282 586.7952,-971.4407"/>
</g>
<!-- X19&#45;&#45;X20 -->
<g id="edge41" class="edge">
<title>X19--X20</title>
<path fill="none" stroke="#000000" d="M602.9214,-936.2022C607.2615,-925.0419 612.8333,-910.7143 617.1583,-899.593"/>
</g>
<!-- X21 -->
<g id="node24" class="node">
<title>X21</title>
<ellipse fill="none" stroke="#000000" cx="624" cy="-810" rx="27.8306" ry="18"/>
<text text-anchor="middle" x="624" y="-805.8" font-family="Times,serif" font-size="14.00" fill="#000000">X21</text>
</g>
<!-- X20&#45;&#45;X21 -->
<g id="edge42" class="edge">
<title>X20--X21</title>
<path fill="none" stroke="#000000" d="M624,-863.8314C624,-853 624,-839.2876 624,-828.4133"/>
</g>
<!-- L2 -->
<g id="node25" class="node">
<title>L2</title>
<ellipse fill="none" stroke="#000000" cx="652" cy="-738" rx="27" ry="18"/>
<text text-anchor="middle" x="652" y="-733.8" font-family="Times,serif" font-size="14.00" fill="#000000">L2</text>
</g>
<!-- X21&#45;&#45;L2 -->
<g id="edge43" class="edge">
<title>X21--L2</title>
<path fill="none" stroke="#000000" d="M630.9214,-792.2022C635.2615,-781.0419 640.8333,-766.7143 645.1583,-755.593"/>
</g>
<!-- X22 -->
<g id="node26" class="node">
<title>X22</title>
<ellipse fill="none" stroke="#000000" cx="577" cy="-666" rx="27.8306" ry="18"/>
<text text-anchor="middle" x="577" y="-661.8" font-family="Times,serif" font-size="14.00" fill="#000000">X22</text>
</g>
<!-- X21&#45;&#45;X22 -->
<g id="edge44" class="edge">
<title>X21--X22</title>
<path fill="none" stroke="#000000" d="M618.2369,-792.3428C609.2163,-764.7053 591.8598,-711.5278 582.8103,-683.8017"/>
</g>
<!-- L2&#45;&#45;X22 -->
<g id="edge45" class="edge">
<title>L2--X22</title>
<path fill="none" stroke="#000000" d="M636.46,-723.0816C623.6739,-710.807 605.6289,-693.4838 592.7782,-681.147"/>
</g>
<!-- X23 -->
<g id="node27" class="node">
<title>X23</title>
<ellipse fill="none" stroke="#000000" cx="615" cy="-594" rx="27.8306" ry="18"/>
<text text-anchor="middle" x="615" y="-589.8" font-family="Times,serif" font-size="14.00" fill="#000000">X23</text>
</g>
<!-- L2&#45;&#45;X23 -->
<g id="edge46" class="edge">
<title>L2--X23</title>
<path fill="none" stroke="#000000" d="M647.3887,-720.0535C640.2986,-692.4592 626.7944,-639.9026 619.6694,-612.1727"/>
</g>
<!-- X24 -->
<g id="node28" class="node">
<title>X24</title>
<ellipse fill="none" stroke="#000000" cx="653" cy="-522" rx="27.8306" ry="18"/>
<text text-anchor="middle" x="653" y="-517.8" font-family="Times,serif" font-size="14.00" fill="#000000">X24</text>
</g>
<!-- L2&#45;&#45;X24 -->
<g id="edge47" class="edge">
<title>L2--X24</title>
<path fill="none" stroke="#000000" d="M652.0835,-719.9555C652.2718,-679.2967 652.7273,-580.8988 652.916,-540.1451"/>
</g>
<!-- X25 -->
<g id="node29" class="node">
<title>X25</title>
<ellipse fill="none" stroke="#000000" cx="691" cy="-450" rx="27.8306" ry="18"/>
<text text-anchor="middle" x="691" y="-445.8" font-family="Times,serif" font-size="14.00" fill="#000000">X25</text>
</g>
<!-- L2&#45;&#45;X25 -->
<g id="edge48" class="edge">
<title>L2--X25</title>
<path fill="none" stroke="#000000" d="M657.0672,-720.0944C659.9229,-709.6259 663.4229,-696.1259 666,-684 679.4881,-620.5347 684.2893,-604.631 690,-540 692.1868,-515.2511 692.0429,-486.5268 691.62,-468.3124"/>
</g>
<!-- X26 -->
<g id="node30" class="node">
<title>X26</title>
<ellipse fill="none" stroke="#000000" cx="719" cy="-378" rx="27.8306" ry="18"/>
<text text-anchor="middle" x="719" y="-373.8" font-family="Times,serif" font-size="14.00" fill="#000000">X26</text>
</g>
<!-- L2&#45;&#45;X26 -->
<g id="edge49" class="edge">
<title>L2--X26</title>
<path fill="none" stroke="#000000" d="M669.4245,-724.0836C696.8502,-700.4817 747,-649.7076 747,-594 747,-594 747,-594 747,-522 747,-475.9025 733.003,-423.0051 724.8016,-395.9672"/>
</g>
<!-- X22&#45;&#45;X23 -->
<g id="edge50" class="edge">
<title>X22--X23</title>
<path fill="none" stroke="#000000" d="M586.0055,-648.937C591.9752,-637.626 599.7851,-622.8282 605.7952,-611.4407"/>
</g>
<!-- X23&#45;&#45;X24 -->
<g id="edge51" class="edge">
<title>X23--X24</title>
<path fill="none" stroke="#000000" d="M624.0055,-576.937C629.9752,-565.626 637.7851,-550.8282 643.7952,-539.4407"/>
</g>
<!-- X24&#45;&#45;X25 -->
<g id="edge52" class="edge">
<title>X24--X25</title>
<path fill="none" stroke="#000000" d="M662.0055,-504.937C667.9752,-493.626 675.7851,-478.8282 681.7952,-467.4407"/>
</g>
<!-- X25&#45;&#45;X26 -->
<g id="edge53" class="edge">
<title>X25--X26</title>
<path fill="none" stroke="#000000" d="M697.9214,-432.2022C702.2615,-421.0419 707.8333,-406.7143 712.1583,-395.593"/>
</g>
<!-- X27 -->
<g id="node31" class="node">
<title>X27</title>
<ellipse fill="none" stroke="#000000" cx="719" cy="-306" rx="27.8306" ry="18"/>
<text text-anchor="middle" x="719" y="-301.8" font-family="Times,serif" font-size="14.00" fill="#000000">X27</text>
</g>
<!-- X26&#45;&#45;X27 -->
<g id="edge54" class="edge">
<title>X26--X27</title>
<path fill="none" stroke="#000000" d="M719,-359.8314C719,-349 719,-335.2876 719,-324.4133"/>
</g>
<!-- L3 -->
<g id="node32" class="node">
<title>L3</title>
<ellipse fill="none" stroke="#000000" cx="747" cy="-234" rx="27" ry="18"/>
<text text-anchor="middle" x="747" y="-229.8" font-family="Times,serif" font-size="14.00" fill="#000000">L3</text>
</g>
<!-- X27&#45;&#45;L3 -->
<g id="edge55" class="edge">
<title>X27--L3</title>
<path fill="none" stroke="#000000" d="M725.9214,-288.2022C730.2615,-277.0419 735.8333,-262.7143 740.1583,-251.593"/>
</g>
<!-- X28 -->
<g id="node33" class="node">
<title>X28</title>
<ellipse fill="none" stroke="#000000" cx="692" cy="-162" rx="27.8306" ry="18"/>
<text text-anchor="middle" x="692" y="-157.8" font-family="Times,serif" font-size="14.00" fill="#000000">X28</text>
</g>
<!-- X27&#45;&#45;X28 -->
<g id="edge56" class="edge">
<title>X27--X28</title>
<path fill="none" stroke="#000000" d="M715.635,-288.0535C710.4611,-260.4592 700.6067,-207.9026 695.4074,-180.1727"/>
</g>
<!-- L3&#45;&#45;X28 -->
<g id="edge57" class="edge">
<title>L3--X28</title>
<path fill="none" stroke="#000000" d="M734.5196,-217.6621C725.5186,-205.8788 713.4207,-190.0416 704.431,-178.2733"/>
</g>
<!-- X29 -->
<g id="node34" class="node">
<title>X29</title>
<ellipse fill="none" stroke="#000000" cx="730" cy="-90" rx="27.8306" ry="18"/>
<text text-anchor="middle" x="730" y="-85.8" font-family="Times,serif" font-size="14.00" fill="#000000">X29</text>
</g>
<!-- L3&#45;&#45;X29 -->
<g id="edge58" class="edge">
<title>L3--X29</title>
<path fill="none" stroke="#000000" d="M744.8813,-216.0535C741.6237,-188.4592 735.4191,-135.9026 732.1454,-108.1727"/>
</g>
<!-- X30 -->
<g id="node35" class="node">
<title>X30</title>
<ellipse fill="none" stroke="#000000" cx="758" cy="-18" rx="27.8306" ry="18"/>
<text text-anchor="middle" x="758" y="-13.8" font-family="Times,serif" font-size="14.00" fill="#000000">X30</text>
</g>
<!-- L3&#45;&#45;X30 -->
<g id="edge59" class="edge">
<title>L3--X30</title>
<path fill="none" stroke="#000000" d="M751.6435,-216.0694C758.8197,-186.2461 771.3475,-124.5301 767,-72 765.9966,-59.8759 763.7466,-46.3759 761.7474,-35.9069"/>
</g>
<!-- X28&#45;&#45;X29 -->
<g id="edge60" class="edge">
<title>X28--X29</title>
<path fill="none" stroke="#000000" d="M701.0055,-144.937C706.9752,-133.626 714.7851,-118.8282 720.7952,-107.4407"/>
</g>
<!-- X29&#45;&#45;X30 -->
<g id="edge61" class="edge">
<title>X29--X30</title>
<path fill="none" stroke="#000000" d="M736.9214,-72.2022C741.2615,-61.0419 746.8333,-46.7143 751.1583,-35.593"/>
</g>
</g>
</svg>