<?xml version="1.0" encoding="UTF-8" standalone="no"?>
<!DOCTYPE svg PUBLIC "-//W3C//DTD SVG 1.1//EN" "http://www.w3.org/Graphics/SVG/1.1/DTD/svg11.dtd">
<!-- Generated by graphviz version 2.40.1 (20161225.0304)
 -->
<!-- Title: %0 Pages: 1 -->
<svg width="726pt" height="4652pt" viewBox="0.00 0.00 726.00 4652.00" xmlns="http://www.w3.org/2000/svg" xmlns:xlink="http://www.w3.org/1999/xlink">
<g id="graph0" class="graph" transform="scale(1 1) rotate(0) translate(4 4648)">
<title>%0</title>
<polygon fill="#ffffff" stroke="transparent" points="-4,4 -4,-4648 722,-4648 722,4 -4,4"/>
<!-- X0 -->
<g id="node1" class="node">
<title>X0</title>
<ellipse fill="none" stroke="#000000" cx="445" cy="-4626" rx="27" ry="18"/>
<text text-anchor="middle" x="445" y="-4621.8" font-family="Times,serif" font-size="14.00" fill="#000000">X0</text>
</g>
<!-- L0 -->
<g id="node2" class="node">
<title>L0</title>
<ellipse fill="none" stroke="#000000" cx="511" cy="-4338" rx="27" ry="18"/>
<text text-anchor="middle" x="511" y="-4333.8" font-family="Times,serif" font-size="14.00" fill="#000000">L0</text>
</g>
<!-- X0&#45;&#45;L0 -->
<g id="edge1" class="edge">
<title>X0--L0</title>
<path fill="none" stroke="#000000" d="M449.1286,-4607.9843C460.9813,-4556.2634 495.0222,-4407.7213 506.873,-4356.0089"/>
</g>
<!-- X1 -->
<g id="node3" class="node">
<title>X1</title>
<ellipse fill="none" stroke="#000000" cx="399" cy="-4554" rx="27" ry="18"/>
<text text-anchor="middle" x="399" y="-4549.8" font-family="Times,serif" font-size="14.00" fill="#000000">X1</text>
</g>
<!-- X0&#45;&#45;X1 -->
<g id="edge2" class="edge">
<title>X0--X1</title>
<path fill="none" stroke="#000000" d="M434.3311,-4609.3008C426.8996,-4597.669 417.0298,-4582.2206 409.6111,-4570.6087"/>
</g>
<!-- X4 -->
<g id="node7" class="node">
<title>X4</title>
<ellipse fill="none" stroke="#000000" cx="361" cy="-4266" rx="27" ry="18"/>
<text text-anchor="middle" x="361" y="-4261.8" font-family="Times,serif" font-size="14.00" fill="#000000">X4</text>
</g>
<!-- L0&#45;&#45;X4 -->
<g id="edge3" class="edge">
<title>L0--X4</title>
<path fill="none" stroke="#000000" d="M488.867,-4327.3762C460.507,-4313.7634 411.6275,-4290.3012 383.2238,-4276.6674"/>
</g>
<!-- X5 -->
<g id="node8" class="node">
<title>X5</title>
<ellipse fill="none" stroke="#000000" cx="361" cy="-4194" rx="27" ry="18"/>
<text text-anchor="middle" x="361" y="-4189.8" font-family="Times,serif" font-size="14.00" fill="#000000">X5</text>
</g>
<!-- L0&#45;&#45;X5 -->
<g id="edge4" class="edge">
<title>L0--X5</title>
<path fill="none" stroke="#000000" d="M491.7949,-4324.9832C477.022,-4314.6021 456.4256,-4299.3116 440,-4284 414.4508,-4260.1836 388.4125,-4228.8665 373.5301,-4210.1502"/>
</g>
<!-- X48 -->
<g id="node60" class="node">
<title>X48</title>
<ellipse fill="none" stroke="#000000" cx="548" cy="-594" rx="27.8306" ry="18"/>
<text text-anchor="middle" x="548" y="-589.8" font-family="Times,serif" font-size="14.00" fill="#000000">X48</text>
</g>
<!-- L0&#45;&#45;X48 -->
<g id="edge5" class="edge">
<title>L0--X48</title>
<path fill="none" stroke="#000000" d="M522.7087,-4321.649C529.696,-4311.2723 538.2913,-4297.332 544,-4284 560.2954,-4245.9443 568,-4235.3978 568,-4194 568,-4194 568,-4194 568,-1098 568,-1001.9959 566,-978.0041 566,-882 566,-882 566,-882 566,-738 566,-692.3979 557.0019,-639.2954 551.7296,-612.0947"/>
</g>
<!-- X49 -->
<g id="node61" class="node">
<title>X49</title>
<ellipse fill="none" stroke="#000000" cx="586" cy="-522" rx="27.8306" ry="18"/>
<text text-anchor="middle" x="586" y="-517.8" font-family="Times,serif" font-size="14.00" fill="#000000">X49</text>
</g>
<!-- L0&#45;&#45;X49 -->
<g id="edge6" class="edge">
<title>L0--X49</title>
<path fill="none" stroke="#000000" d="M514.9368,-4319.9156C520.502,-4292.7281 530,-4239.6422 530,-4194 530,-4194 530,-4194 530,-1098 530,-996.5225 604,-983.4775 604,-882 604,-882 604,-882 604,-666 604,-620.3979 595.0019,-567.2954 589.7296,-540.0947"/>
</g>
<!-- X51 -->
<g id="node63" class="node">
<title>X51</title>
<ellipse fill="none" stroke="#000000" cx="567" cy="-378" rx="27.8306" ry="18"/>
<text text-anchor="middle" x="567" y="-373.8" font-family="Times,serif" font-size="14.00" fill="#000000">X51</text>
</g>
<!-- L0&#45;&#45;X51 -->
<g id="edge7" class="edge">
<title>L0--X51</title>
<path fill="none" stroke="#000000" d="M532.632,-4327.0258C569.8397,-4306.4319 642,-4258.2146 642,-4194 642,-4194 642,-4194 642,-522 642,-470.1348 603.2549,-418.4352 581.4608,-393.4568"/>
</g>
<!-- X52 -->
<g id="node64" class="node">
<title>X52</title>
<ellipse fill="none" stroke="#000000" cx="510" cy="-306" rx="27.8306" ry="18"/>
<text text-anchor="middle" x="510" y="-301.8" font-family="Times,serif" font-size="14.00" fill="#000000">X52</text>
</g>
<!-- L0&#45;&#45;X52 -->
<g id="edge8" class="edge">
<title>L0--X52</title>
<path fill="none" stroke="#000000" d="M507.0632,-4319.9156C501.498,-4292.7281 492,-4239.6422 492,-4194 492,-4194 492,-4194 492,-450 492,-404.3979 500.9981,-351.2954 506.2704,-324.0947"/>
</g>
<!-- X53 -->
<g id="node65" class="node">
<title>X53</title>
<ellipse fill="none" stroke="#000000" cx="482" cy="-234" rx="27.8306" ry="18"/>
<text text-anchor="middle" x="482" y="-229.8" font-family="Times,serif" font-size="14.00" fill="#000000">X53</text>
</g>
<!-- L0&#45;&#45;X53 -->
<g id="edge9" class="edge">
<title>L0--X53</title>
<path fill="none" stroke="#000000" d="M499.7386,-4321.5531C483.1271,-4295.6458 454,-4243.2038 454,-4194 454,-4194 454,-4194 454,-378 454,-331.9025 467.997,-279.0051 476.1984,-251.9672"/>
</g>
<!-- X55 -->
<g id="node67" class="node">
<title>X55</title>
<ellipse fill="none" stroke="#000000" cx="662" cy="-90" rx="27.8306" ry="18"/>
<text text-anchor="middle" x="662" y="-85.8" font-family="Times,serif" font-size="14.00" fill="#000000">X55</text>
</g>
<!-- L0&#45;&#45;X55 -->
<g id="edge10" class="edge">
<title>L0--X55</title>
<path fill="none" stroke="#000000" d="M535.5741,-4330.0419C582.4458,-4313.1455 680,-4268.9734 680,-4194 680,-4194 680,-4194 680,-234 680,-188.3979 671.0019,-135.2954 665.7296,-108.0947"/>
</g>
<!-- X56 -->
<g id="node68" class="node">
<title>X56</title>
<ellipse fill="none" stroke="#000000" cx="690" cy="-18" rx="27.8306" ry="18"/>
<text text-anchor="middle" x="690" y="-13.8" font-family="Times,serif" font-size="14.00" fill="#000000">X56</text>
</g>
<!-- L0&#45;&#45;X56 -->
<g id="edge11" class="edge">
<title>L0--X56</title>
<path fill="none" stroke="#000000" d="M537.2167,-4332.7191C592.9175,-4319.8087 718,-4281.118 718,-4194 718,-4194 718,-4194 718,-162 718,-115.9025 704.003,-63.0051 695.8016,-35.9672"/>
</g>
<!-- L1 -->
<g id="node4" class="node">
<title>L1</title>
<ellipse fill="none" stroke="#000000" cx="230" cy="-4482" rx="27" ry="18"/>
<text text-anchor="middle" x="230" y="-4477.8" font-family="Times,serif" font-size="14.00" fill="#000000">L1</text>
</g>
<!-- X1&#45;&#45;L1 -->
<g id="edge12" class="edge">
<title>X1--L1</title>
<path fill="none" stroke="#000000" d="M376.2079,-4544.2898C343.9531,-4530.5481 285.3226,-4505.5694 252.9707,-4491.7863"/>
</g>
<!-- X2 -->
<g id="node5" class="node">
<title>X2</title>
<ellipse fill="none" stroke="#000000" cx="399" cy="-4410" rx="27" ry="18"/>
<text text-anchor="middle" x="399" y="-4405.8" font-family="Times,serif" font-size="14.00" fill="#000000">X2</text>
</g>
<!-- X1&#45;&#45;X2 -->
<g id="edge13" class="edge">
<title>X1--X2</title>
<path fill="none" stroke="#000000" d="M399,-4535.7623C399,-4508.0633 399,-4455.7005 399,-4428.0896"/>
</g>
<!-- L1&#45;&#45;X2 -->
<g id="edge14" class="edge">
<title>L1--X2</title>
<path fill="none" stroke="#000000" d="M253.1663,-4472.3452C278.8387,-4461.6183 321.4462,-4443.7336 358,-4428 363.998,-4425.4183 370.4741,-4422.5929 376.4688,-4419.9616"/>
</g>
<!-- X3 -->
<g id="node6" class="node">
<title>X3</title>
<ellipse fill="none" stroke="#000000" cx="361" cy="-4338" rx="27" ry="18"/>
<text text-anchor="middle" x="361" y="-4333.8" font-family="Times,serif" font-size="14.00" fill="#000000">X3</text>
</g>
<!-- L1&#45;&#45;X3 -->
<g id="edge15" class="edge">
<title>L1--X3</title>
<path fill="none" stroke="#000000" d="M253.3581,-4472.7334C273.2825,-4463.8226 301.552,-4448.659 320,-4428 338.8699,-4406.8685 350.4476,-4375.589 356.2942,-4356.0213"/>
</g>
<!-- X6 -->
<g id="node9" class="node">
<title>X6</title>
<ellipse fill="none" stroke="#000000" cx="285" cy="-4122" rx="27" ry="18"/>
<text text-anchor="middle" x="285" y="-4117.8" font-family="Times,serif" font-size="14.00" fill="#000000">X6</text>
</g>
<!-- L1&#45;&#45;X6 -->
<g id="edge16" class="edge">
<title>L1--X6</title>
<path fill="none" stroke="#000000" d="M237.6899,-4464.6554C248.7936,-4437.9874 268,-4385.0576 268,-4338 268,-4338 268,-4338 268,-4266 268,-4220.4358 276.4982,-4167.3176 281.4776,-4140.1045"/>
</g>
<!-- X7 -->
<g id="node10" class="node">
<title>X7</title>
<ellipse fill="none" stroke="#000000" cx="247" cy="-4050" rx="27" ry="18"/>
<text text-anchor="middle" x="247" y="-4045.8" font-family="Times,serif" font-size="14.00" fill="#000000">X7</text>
</g>
<!-- L1&#45;&#45;X7 -->
<g id="edge17" class="edge">
<title>L1--X7</title>
<path fill="none" stroke="#000000" d="M230,-4463.8146C230,-4436.4983 230,-4383.25 230,-4338 230,-4338 230,-4338 230,-4194 230,-4148.4358 238.4982,-4095.3176 243.4776,-4068.1045"/>
</g>
<!-- X8 -->
<g id="node11" class="node">
<title>X8</title>
<ellipse fill="none" stroke="#000000" cx="209" cy="-3978" rx="27" ry="18"/>
<text text-anchor="middle" x="209" y="-3973.8" font-family="Times,serif" font-size="14.00" fill="#000000">X8</text>
</g>
<!-- L1&#45;&#45;X8 -->
<g id="edge18" class="edge">
<title>L1--X8</title>
<path fill="none" stroke="#000000" d="M222.3101,-4464.6554C211.2064,-4437.9874 192,-4385.0576 192,-4338 192,-4338 192,-4338 192,-4122 192,-4076.4358 200.4982,-4023.3176 205.4776,-3996.1045"/>
</g>
<!-- X9 -->
<g id="node12" class="node">
<title>X9</title>
<ellipse fill="none" stroke="#000000" cx="205" cy="-3906" rx="27" ry="18"/>
<text text-anchor="middle" x="205" y="-3901.8" font-family="Times,serif" font-size="14.00" fill="#000000">X9</text>
</g>
<!-- L1&#45;&#45;X9 -->
<g id="edge19" class="edge">
<title>L1--X9</title>
<path fill="none" stroke="#000000" d="M215.3464,-4466.5784C193.2617,-4441.6483 154,-4390.0136 154,-4338 154,-4338 154,-4338 154,-4050 154,-4009.1184 158.1592,-3998.0928 173,-3960 178.2219,-3946.5966 186.5665,-3932.6586 193.4252,-3922.3007"/>
</g>
<!-- X46 -->
<g id="node58" class="node">
<title>X46</title>
<ellipse fill="none" stroke="#000000" cx="100" cy="-738" rx="27.8306" ry="18"/>
<text text-anchor="middle" x="100" y="-733.8" font-family="Times,serif" font-size="14.00" fill="#000000">X46</text>
</g>
<!-- L1&#45;&#45;X46 -->
<g id="edge20" class="edge">
<title>L1--X46</title>
<path fill="none" stroke="#000000" d="M203.9292,-4476.7988C161.8521,-4467.901 81.6855,-4448.7035 62,-4428 33.4742,-4397.9991 38,-4379.3978 38,-4338 38,-4338 38,-4338 38,-1170 38,-1072.5257 76,-1051.4743 76,-954 76,-954 76,-954 76,-882 76,-836.1258 87.9974,-783.136 95.0272,-756.0247"/>
</g>
<!-- X47 -->
<g id="node59" class="node">
<title>X47</title>
<ellipse fill="none" stroke="#000000" cx="100" cy="-666" rx="27.8306" ry="18"/>
<text text-anchor="middle" x="100" y="-661.8" font-family="Times,serif" font-size="14.00" fill="#000000">X47</text>
</g>
<!-- L1&#45;&#45;X47 -->
<g id="edge21" class="edge">
<title>L1--X47</title>
<path fill="none" stroke="#000000" d="M206.6107,-4472.9647C163.5297,-4454.6165 76,-4408.6448 76,-4338 76,-4338 76,-4338 76,-1170 76,-1072.5257 38,-1051.4743 38,-954 38,-954 38,-954 38,-810 38,-768.4855 45.4741,-757.6338 63,-720 69.333,-706.4011 78.9722,-692.4691 86.8244,-682.1631"/>
</g>
<!-- X50 -->
<g id="node62" class="node">
<title>X50</title>
<ellipse fill="none" stroke="#000000" cx="567" cy="-450" rx="27.8306" ry="18"/>
<text text-anchor="middle" x="567" y="-445.8" font-family="Times,serif" font-size="14.00" fill="#000000">X50</text>
</g>
<!-- L1&#45;&#45;X50 -->
<g id="edge22" class="edge">
<title>L1--X50</title>
<path fill="none" stroke="#000000" d="M203.7938,-4477.5942C157.0445,-4469.2714 61.8319,-4450.079 37,-4428 4.6798,-4399.2628 0,-4381.2483 0,-4338 0,-4338 0,-4338 0,-810 0,-732.7472 8.4681,-702.7199 63,-648 203.5186,-506.9968 456.4017,-463.7882 539.6258,-453.0637"/>
</g>
<!-- X54 -->
<g id="node66" class="node">
<title>X54</title>
<ellipse fill="none" stroke="#000000" cx="482" cy="-162" rx="27.8306" ry="18"/>
<text text-anchor="middle" x="482" y="-157.8" font-family="Times,serif" font-size="14.00" fill="#000000">X54</text>
</g>
<!-- L1&#45;&#45;X54 -->
<g id="edge23" class="edge">
<title>L1--X54</title>
<path fill="none" stroke="#000000" d="M244.6536,-4466.5784C266.7383,-4441.6483 306,-4390.0136 306,-4338 306,-4338 306,-4338 306,-4266 306,-4168.7479 341,-4147.2521 341,-4050 341,-4050 341,-4050 341,-3042 341,-2945.999 342,-2922.001 342,-2826 342,-2826 342,-2826 342,-2682 342,-2041.1555 416,-1882.8445 416,-1242 416,-1242 416,-1242 416,-1026 416,-801.3642 378,-746.6358 378,-522 378,-522 378,-522 378,-306 378,-248.6407 432.9009,-198.615 462.9248,-175.5459"/>
</g>
<!-- X2&#45;&#45;X3 -->
<g id="edge24" class="edge">
<title>X2--X3</title>
<path fill="none" stroke="#000000" d="M389.9945,-4392.937C384.0248,-4381.626 376.2149,-4366.8282 370.2048,-4355.4407"/>
</g>
<!-- X3&#45;&#45;X4 -->
<g id="edge25" class="edge">
<title>X3--X4</title>
<path fill="none" stroke="#000000" d="M361,-4319.8314C361,-4309 361,-4295.2876 361,-4284.4133"/>
</g>
<!-- X4&#45;&#45;X5 -->
<g id="edge26" class="edge">
<title>X4--X5</title>
<path fill="none" stroke="#000000" d="M361,-4247.8314C361,-4237 361,-4223.2876 361,-4212.4133"/>
</g>
<!-- X5&#45;&#45;X6 -->
<g id="edge27" class="edge">
<title>X5--X6</title>
<path fill="none" stroke="#000000" d="M345.2528,-4179.0816C332.2093,-4166.7246 313.765,-4149.251 300.7271,-4136.8993"/>
</g>
<!-- X6&#45;&#45;X7 -->
<g id="edge28" class="edge">
<title>X6--X7</title>
<path fill="none" stroke="#000000" d="M275.9945,-4104.937C270.0248,-4093.626 262.2149,-4078.8282 256.2048,-4067.4407"/>
</g>
<!-- X7&#45;&#45;X8 -->
<g id="edge29" class="edge">
<title>X7--X8</title>
<path fill="none" stroke="#000000" d="M237.9945,-4032.937C232.0248,-4021.626 224.2149,-4006.8282 218.2048,-3995.4407"/>
</g>
<!-- X8&#45;&#45;X9 -->
<g id="edge30" class="edge">
<title>X8--X9</title>
<path fill="none" stroke="#000000" d="M207.9906,-3959.8314C207.3889,-3949 206.6271,-3935.2876 206.023,-3924.4133"/>
</g>
<!-- X10 -->
<g id="node13" class="node">
<title>X10</title>
<ellipse fill="none" stroke="#000000" cx="205" cy="-3834" rx="27.8306" ry="18"/>
<text text-anchor="middle" x="205" y="-3829.8" font-family="Times,serif" font-size="14.00" fill="#000000">X10</text>
</g>
<!-- X9&#45;&#45;X10 -->
<g id="edge31" class="edge">
<title>X9--X10</title>
<path fill="none" stroke="#000000" d="M205,-3887.8314C205,-3877 205,-3863.2876 205,-3852.4133"/>
</g>
<!-- L2 -->
<g id="node14" class="node">
<title>L2</title>
<ellipse fill="none" stroke="#000000" cx="226" cy="-3762" rx="27" ry="18"/>
<text text-anchor="middle" x="226" y="-3757.8" font-family="Times,serif" font-size="14.00" fill="#000000">L2</text>
</g>
<!-- X10&#45;&#45;L2 -->
<g id="edge32" class="edge">
<title>X10--L2</title>
<path fill="none" stroke="#000000" d="M210.191,-3816.2022C213.4218,-3805.1252 217.5627,-3790.928 220.7959,-3779.8425"/>
</g>
<!-- X11 -->
<g id="node15" class="node">
<title>X11</title>
<ellipse fill="none" stroke="#000000" cx="171" cy="-3690" rx="27.8306" ry="18"/>
<text text-anchor="middle" x="171" y="-3685.8" font-family="Times,serif" font-size="14.00" fill="#000000">X11</text>
</g>
<!-- X10&#45;&#45;X11 -->
<g id="edge33" class="edge">
<title>X10--X11</title>
<path fill="none" stroke="#000000" d="M199.7158,-3816.0742C196.7044,-3805.5989 192.9544,-3792.0989 190,-3780 183.9388,-3755.1783 178.0322,-3726.2275 174.4547,-3708.0049"/>
</g>
<!-- L2&#45;&#45;X11 -->
<g id="edge34" class="edge">
<title>L2--X11</title>
<path fill="none" stroke="#000000" d="M213.5196,-3745.6621C204.5186,-3733.8788 192.4207,-3718.0416 183.431,-3706.2733"/>
</g>
<!-- X12 -->
<g id="node16" class="node">
<title>X12</title>
<ellipse fill="none" stroke="#000000" cx="196" cy="-3618" rx="27.8306" ry="18"/>
<text text-anchor="middle" x="196" y="-3613.8" font-family="Times,serif" font-size="14.00" fill="#000000">X12</text>
</g>
<!-- L2&#45;&#45;X12 -->
<g id="edge35" class="edge">
<title>L2--X12</title>
<path fill="none" stroke="#000000" d="M222.5261,-3744.0473C218.9805,-3725.8653 213.2656,-3696.9454 208,-3672 205.4611,-3659.9723 202.4611,-3646.4723 200.0958,-3635.9792"/>
</g>
<!-- X11&#45;&#45;X12 -->
<g id="edge36" class="edge">
<title>X11--X12</title>
<path fill="none" stroke="#000000" d="M177.1798,-3672.2022C181.0549,-3661.0419 186.0297,-3646.7143 189.8913,-3635.593"/>
</g>
<!-- X13 -->
<g id="node17" class="node">
<title>X13</title>
<ellipse fill="none" stroke="#000000" cx="196" cy="-3546" rx="27.8306" ry="18"/>
<text text-anchor="middle" x="196" y="-3541.8" font-family="Times,serif" font-size="14.00" fill="#000000">X13</text>
</g>
<!-- X12&#45;&#45;X13 -->
<g id="edge37" class="edge">
<title>X12--X13</title>
<path fill="none" stroke="#000000" d="M196,-3599.8314C196,-3589 196,-3575.2876 196,-3564.4133"/>
</g>
<!-- L3 -->
<g id="node18" class="node">
<title>L3</title>
<ellipse fill="none" stroke="#000000" cx="187" cy="-3330" rx="27" ry="18"/>
<text text-anchor="middle" x="187" y="-3325.8" font-family="Times,serif" font-size="14.00" fill="#000000">L3</text>
</g>
<!-- X13&#45;&#45;L3 -->
<g id="edge38" class="edge">
<title>X13--L3</title>
<path fill="none" stroke="#000000" d="M195.2481,-3527.9555C193.554,-3487.2967 189.4541,-3388.8988 187.756,-3348.1451"/>
</g>
<!-- X14 -->
<g id="node19" class="node">
<title>X14</title>
<ellipse fill="none" stroke="#000000" cx="243" cy="-3474" rx="27.8306" ry="18"/>
<text text-anchor="middle" x="243" y="-3469.8" font-family="Times,serif" font-size="14.00" fill="#000000">X14</text>
</g>
<!-- X13&#45;&#45;X14 -->
<g id="edge39" class="edge">
<title>X13--X14</title>
<path fill="none" stroke="#000000" d="M206.9009,-3529.3008C214.4938,-3517.669 224.5782,-3502.2206 232.1582,-3490.6087"/>
</g>
<!-- X16 -->
<g id="node22" class="node">
<title>X16</title>
<ellipse fill="none" stroke="#000000" cx="280" cy="-3258" rx="27.8306" ry="18"/>
<text text-anchor="middle" x="280" y="-3253.8" font-family="Times,serif" font-size="14.00" fill="#000000">X16</text>
</g>
<!-- L3&#45;&#45;X16 -->
<g id="edge40" class="edge">
<title>L3--X16</title>
<path fill="none" stroke="#000000" d="M204.9313,-3316.1177C221.3995,-3303.3681 245.6729,-3284.5758 262.1237,-3271.8397"/>
</g>
<!-- X17 -->
<g id="node23" class="node">
<title>X17</title>
<ellipse fill="none" stroke="#000000" cx="242" cy="-3186" rx="27.8306" ry="18"/>
<text text-anchor="middle" x="242" y="-3181.8" font-family="Times,serif" font-size="14.00" fill="#000000">X17</text>
</g>
<!-- L3&#45;&#45;X17 -->
<g id="edge41" class="edge">
<title>L3--X17</title>
<path fill="none" stroke="#000000" d="M193.7441,-3312.3428C204.3001,-3284.7053 224.6109,-3231.5278 235.2008,-3203.8017"/>
</g>
<!-- X18 -->
<g id="node24" class="node">
<title>X18</title>
<ellipse fill="none" stroke="#000000" cx="204" cy="-3114" rx="27.8306" ry="18"/>
<text text-anchor="middle" x="204" y="-3109.8" font-family="Times,serif" font-size="14.00" fill="#000000">X18</text>
</g>
<!-- L3&#45;&#45;X18 -->
<g id="edge42" class="edge">
<title>L3--X18</title>
<path fill="none" stroke="#000000" d="M188.4202,-3311.9555C191.6202,-3271.2967 199.3644,-3172.8988 202.5719,-3132.1451"/>
</g>
<!-- X19 -->
<g id="node25" class="node">
<title>X19</title>
<ellipse fill="none" stroke="#000000" cx="194" cy="-3042" rx="27.8306" ry="18"/>
<text text-anchor="middle" x="194" y="-3037.8" font-family="Times,serif" font-size="14.00" fill="#000000">X19</text>
</g>
<!-- L3&#45;&#45;X19 -->
<g id="edge43" class="edge">
<title>L3--X19</title>
<path fill="none" stroke="#000000" d="M181.6944,-3312.1084C170.7838,-3272.563 148.3582,-3174.968 167,-3096 170.1306,-3082.7385 177.0443,-3069.0205 183.0915,-3058.7295"/>
</g>
<!-- L4 -->
<g id="node20" class="node">
<title>L4</title>
<ellipse fill="none" stroke="#000000" cx="286" cy="-3402" rx="27" ry="18"/>
<text text-anchor="middle" x="286" y="-3397.8" font-family="Times,serif" font-size="14.00" fill="#000000">L4</text>
</g>
<!-- X14&#45;&#45;L4 -->
<g id="edge44" class="edge">
<title>X14--L4</title>
<path fill="none" stroke="#000000" d="M253.1904,-3456.937C260.0449,-3445.4596 269.0435,-3430.3922 275.8827,-3418.9405"/>
</g>
<!-- X15 -->
<g id="node21" class="node">
<title>X15</title>
<ellipse fill="none" stroke="#000000" cx="280" cy="-3330" rx="27.8306" ry="18"/>
<text text-anchor="middle" x="280" y="-3325.8" font-family="Times,serif" font-size="14.00" fill="#000000">X15</text>
</g>
<!-- X14&#45;&#45;X15 -->
<g id="edge45" class="edge">
<title>X14--X15</title>
<path fill="none" stroke="#000000" d="M242.1721,-3455.9987C241.834,-3437.5295 242.7277,-3408.1615 250,-3384 254.0183,-3370.6496 261.6917,-3356.933 268.2718,-3346.6649"/>
</g>
<!-- L4&#45;&#45;X15 -->
<g id="edge46" class="edge">
<title>L4--X15</title>
<path fill="none" stroke="#000000" d="M284.4859,-3383.8314C283.5833,-3373 282.4406,-3359.2876 281.5344,-3348.4133"/>
</g>
<!-- X15&#45;&#45;X16 -->
<g id="edge47" class="edge">
<title>X15--X16</title>
<path fill="none" stroke="#000000" d="M280,-3311.8314C280,-3301 280,-3287.2876 280,-3276.4133"/>
</g>
<!-- X16&#45;&#45;X17 -->
<g id="edge48" class="edge">
<title>X16--X17</title>
<path fill="none" stroke="#000000" d="M270.9945,-3240.937C265.0248,-3229.626 257.2149,-3214.8282 251.2048,-3203.4407"/>
</g>
<!-- X17&#45;&#45;X18 -->
<g id="edge49" class="edge">
<title>X17--X18</title>
<path fill="none" stroke="#000000" d="M232.9945,-3168.937C227.0248,-3157.626 219.2149,-3142.8282 213.2048,-3131.4407"/>
</g>
<!-- X18&#45;&#45;X19 -->
<g id="edge50" class="edge">
<title>X18--X19</title>
<path fill="none" stroke="#000000" d="M201.4766,-3095.8314C199.9722,-3085 198.0677,-3071.2876 196.5574,-3060.4133"/>
</g>
<!-- X20 -->
<g id="node26" class="node">
<title>X20</title>
<ellipse fill="none" stroke="#000000" cx="194" cy="-2970" rx="27.8306" ry="18"/>
<text text-anchor="middle" x="194" y="-2965.8" font-family="Times,serif" font-size="14.00" fill="#000000">X20</text>
</g>
<!-- X19&#45;&#45;X20 -->
<g id="edge51" class="edge">
<title>X19--X20</title>
<path fill="none" stroke="#000000" d="M194,-3023.8314C194,-3013 194,-2999.2876 194,-2988.4133"/>
</g>
<!-- L5 -->
<g id="node27" class="node">
<title>L5</title>
<ellipse fill="none" stroke="#000000" cx="158" cy="-2898" rx="27" ry="18"/>
<text text-anchor="middle" x="158" y="-2893.8" font-family="Times,serif" font-size="14.00" fill="#000000">L5</text>
</g>
<!-- X20&#45;&#45;L5 -->
<g id="edge52" class="edge">
<title>X20--L5</title>
<path fill="none" stroke="#000000" d="M185.2854,-2952.5708C179.6253,-2941.2506 172.2784,-2926.5568 166.6343,-2915.2687"/>
</g>
<!-- X21 -->
<g id="node28" class="node">
<title>X21</title>
<ellipse fill="none" stroke="#000000" cx="213" cy="-2826" rx="27.8306" ry="18"/>
<text text-anchor="middle" x="213" y="-2821.8" font-family="Times,serif" font-size="14.00" fill="#000000">X21</text>
</g>
<!-- X20&#45;&#45;X21 -->
<g id="edge53" class="edge">
<title>X20--X21</title>
<path fill="none" stroke="#000000" d="M196.3679,-2952.0535C200.0088,-2924.4592 206.9434,-2871.9026 210.6022,-2844.1727"/>
</g>
<!-- L5&#45;&#45;X21 -->
<g id="edge54" class="edge">
<title>L5--X21</title>
<path fill="none" stroke="#000000" d="M170.4804,-2881.6621C179.4814,-2869.8788 191.5793,-2854.0416 200.569,-2842.2733"/>
</g>
<!-- X22 -->
<g id="node29" class="node">
<title>X22</title>
<ellipse fill="none" stroke="#000000" cx="194" cy="-2754" rx="27.8306" ry="18"/>
<text text-anchor="middle" x="194" y="-2749.8" font-family="Times,serif" font-size="14.00" fill="#000000">X22</text>
</g>
<!-- L5&#45;&#45;X22 -->
<g id="edge55" class="edge">
<title>L5--X22</title>
<path fill="none" stroke="#000000" d="M160.9347,-2879.9189C164.0609,-2861.637 169.4562,-2832.641 176,-2808 179.2466,-2795.7746 183.7466,-2782.2746 187.435,-2771.831"/>
</g>
<!-- X23 -->
<g id="node30" class="node">
<title>X23</title>
<ellipse fill="none" stroke="#000000" cx="194" cy="-2682" rx="27.8306" ry="18"/>
<text text-anchor="middle" x="194" y="-2677.8" font-family="Times,serif" font-size="14.00" fill="#000000">X23</text>
</g>
<!-- L5&#45;&#45;X23 -->
<g id="edge56" class="edge">
<title>L5--X23</title>
<path fill="none" stroke="#000000" d="M154.4299,-2879.987C149.1454,-2849.5233 141.4393,-2786.2401 157,-2736 161.4383,-2721.6704 171.1367,-2707.7612 179.4908,-2697.6488"/>
</g>
<!-- X24 -->
<g id="node31" class="node">
<title>X24</title>
<ellipse fill="none" stroke="#000000" cx="246" cy="-2610" rx="27.8306" ry="18"/>
<text text-anchor="middle" x="246" y="-2605.8" font-family="Times,serif" font-size="14.00" fill="#000000">X24</text>
</g>
<!-- L5&#45;&#45;X24 -->
<g id="edge57" class="edge">
<title>L5--X24</title>
<path fill="none" stroke="#000000" d="M183.0004,-2891.0492C205.0183,-2883.453 235.736,-2868.9119 250,-2844 290.6811,-2772.951 264.8431,-2668.776 251.998,-2627.6404"/>
</g>
<!-- X21&#45;&#45;X22 -->
<g id="edge58" class="edge">
<title>X21--X22</title>
<path fill="none" stroke="#000000" d="M208.3034,-2808.2022C205.3803,-2797.1252 201.6338,-2782.928 198.7084,-2771.8425"/>
</g>
<!-- X22&#45;&#45;X23 -->
<g id="edge59" class="edge">
<title>X22--X23</title>
<path fill="none" stroke="#000000" d="M194,-2735.8314C194,-2725 194,-2711.2876 194,-2700.4133"/>
</g>
<!-- X23&#45;&#45;X24 -->
<g id="edge60" class="edge">
<title>X23--X24</title>
<path fill="none" stroke="#000000" d="M205.7996,-2665.6621C214.1899,-2654.0448 225.4261,-2638.4869 233.8862,-2626.7729"/>
</g>
<!-- X25 -->
<g id="node32" class="node">
<title>X25</title>
<ellipse fill="none" stroke="#000000" cx="246" cy="-2538" rx="27.8306" ry="18"/>
<text text-anchor="middle" x="246" y="-2533.8" font-family="Times,serif" font-size="14.00" fill="#000000">X25</text>
</g>
<!-- X24&#45;&#45;X25 -->
<g id="edge61" class="edge">
<title>X24--X25</title>
<path fill="none" stroke="#000000" d="M246,-2591.8314C246,-2581 246,-2567.2876 246,-2556.4133"/>
</g>
<!-- L6 -->
<g id="node33" class="node">
<title>L6</title>
<ellipse fill="none" stroke="#000000" cx="229" cy="-2466" rx="27" ry="18"/>
<text text-anchor="middle" x="229" y="-2461.8" font-family="Times,serif" font-size="14.00" fill="#000000">L6</text>
</g>
<!-- X25&#45;&#45;L6 -->
<g id="edge62" class="edge">
<title>X25--L6</title>
<path fill="none" stroke="#000000" d="M241.7978,-2520.2022C239.1823,-2509.1252 235.8302,-2494.928 233.2128,-2483.8425"/>
</g>
<!-- X26 -->
<g id="node34" class="node">
<title>X26</title>
<ellipse fill="none" stroke="#000000" cx="284" cy="-2394" rx="27.8306" ry="18"/>
<text text-anchor="middle" x="284" y="-2389.8" font-family="Times,serif" font-size="14.00" fill="#000000">X26</text>
</g>
<!-- X25&#45;&#45;X26 -->
<g id="edge63" class="edge">
<title>X25--X26</title>
<path fill="none" stroke="#000000" d="M252.9258,-2520.187C256.8178,-2509.7494 261.5678,-2496.2494 265,-2484 271.8938,-2459.3965 277.5922,-2430.3911 280.8966,-2412.097"/>
</g>
<!-- L6&#45;&#45;X26 -->
<g id="edge64" class="edge">
<title>L6--X26</title>
<path fill="none" stroke="#000000" d="M241.4804,-2449.6621C250.4814,-2437.8788 262.5793,-2422.0416 271.569,-2410.2733"/>
</g>
<!-- X27 -->
<g id="node35" class="node">
<title>X27</title>
<ellipse fill="none" stroke="#000000" cx="260" cy="-2322" rx="27.8306" ry="18"/>
<text text-anchor="middle" x="260" y="-2317.8" font-family="Times,serif" font-size="14.00" fill="#000000">X27</text>
</g>
<!-- L6&#45;&#45;X27 -->
<g id="edge65" class="edge">
<title>L6--X27</title>
<path fill="none" stroke="#000000" d="M232.3815,-2448.0274C235.8553,-2429.8299 241.5154,-2400.8982 247,-2376 249.6553,-2363.9462 252.9053,-2350.4462 255.4914,-2339.9596"/>
</g>
<!-- X28 -->
<g id="node36" class="node">
<title>X28</title>
<ellipse fill="none" stroke="#000000" cx="260" cy="-2250" rx="27.8306" ry="18"/>
<text text-anchor="middle" x="260" y="-2245.8" font-family="Times,serif" font-size="14.00" fill="#000000">X28</text>
</g>
<!-- L6&#45;&#45;X28 -->
<g id="edge66" class="edge">
<title>L6--X28</title>
<path fill="none" stroke="#000000" d="M224.5337,-2447.9943C217.8077,-2417.5413 207.4289,-2354.2736 223,-2304 227.4383,-2289.6704 237.1367,-2275.7612 245.4908,-2265.6488"/>
</g>
<!-- X29 -->
<g id="node37" class="node">
<title>X29</title>
<ellipse fill="none" stroke="#000000" cx="267" cy="-2178" rx="27.8306" ry="18"/>
<text text-anchor="middle" x="267" y="-2173.8" font-family="Times,serif" font-size="14.00" fill="#000000">X29</text>
</g>
<!-- L6&#45;&#45;X29 -->
<g id="edge67" class="edge">
<title>L6--X29</title>
<path fill="none" stroke="#000000" d="M254.0004,-2459.0492C276.0183,-2451.453 306.736,-2436.9119 321,-2412 363.0549,-2338.5516 304.4582,-2234.4487 278.3929,-2194.4917"/>
</g>
<!-- X26&#45;&#45;X27 -->
<g id="edge68" class="edge">
<title>X26--X27</title>
<path fill="none" stroke="#000000" d="M278.0674,-2376.2022C274.3473,-2365.0419 269.5714,-2350.7143 265.8643,-2339.593"/>
</g>
<!-- X27&#45;&#45;X28 -->
<g id="edge69" class="edge">
<title>X27--X28</title>
<path fill="none" stroke="#000000" d="M260,-2303.8314C260,-2293 260,-2279.2876 260,-2268.4133"/>
</g>
<!-- X28&#45;&#45;X29 -->
<g id="edge70" class="edge">
<title>X28--X29</title>
<path fill="none" stroke="#000000" d="M261.7664,-2231.8314C262.8194,-2221 264.1526,-2207.2876 265.2098,-2196.4133"/>
</g>
<!-- X30 -->
<g id="node38" class="node">
<title>X30</title>
<ellipse fill="none" stroke="#000000" cx="267" cy="-2106" rx="27.8306" ry="18"/>
<text text-anchor="middle" x="267" y="-2101.8" font-family="Times,serif" font-size="14.00" fill="#000000">X30</text>
</g>
<!-- X29&#45;&#45;X30 -->
<g id="edge71" class="edge">
<title>X29--X30</title>
<path fill="none" stroke="#000000" d="M267,-2159.8314C267,-2149 267,-2135.2876 267,-2124.4133"/>
</g>
<!-- L7 -->
<g id="node39" class="node">
<title>L7</title>
<ellipse fill="none" stroke="#000000" cx="213" cy="-2034" rx="27" ry="18"/>
<text text-anchor="middle" x="213" y="-2029.8" font-family="Times,serif" font-size="14.00" fill="#000000">L7</text>
</g>
<!-- X30&#45;&#45;L7 -->
<g id="edge72" class="edge">
<title>X30--L7</title>
<path fill="none" stroke="#000000" d="M254.7466,-2089.6621C245.9091,-2077.8788 234.0312,-2062.0416 225.2049,-2050.2733"/>
</g>
<!-- X31 -->
<g id="node40" class="node">
<title>X31</title>
<ellipse fill="none" stroke="#000000" cx="262" cy="-1962" rx="27.8306" ry="18"/>
<text text-anchor="middle" x="262" y="-1957.8" font-family="Times,serif" font-size="14.00" fill="#000000">X31</text>
</g>
<!-- X30&#45;&#45;X31 -->
<g id="edge73" class="edge">
<title>X30--X31</title>
<path fill="none" stroke="#000000" d="M266.3667,-2087.7623C265.405,-2060.0633 263.5868,-2007.7005 262.6281,-1980.0896"/>
</g>
<!-- L7&#45;&#45;X31 -->
<g id="edge74" class="edge">
<title>L7--X31</title>
<path fill="none" stroke="#000000" d="M224.3647,-2017.3008C232.2808,-2005.669 242.7943,-1990.2206 250.6969,-1978.6087"/>
</g>
<!-- X32 -->
<g id="node41" class="node">
<title>X32</title>
<ellipse fill="none" stroke="#000000" cx="262" cy="-1890" rx="27.8306" ry="18"/>
<text text-anchor="middle" x="262" y="-1885.8" font-family="Times,serif" font-size="14.00" fill="#000000">X32</text>
</g>
<!-- X31&#45;&#45;X32 -->
<g id="edge75" class="edge">
<title>X31--X32</title>
<path fill="none" stroke="#000000" d="M262,-1943.8314C262,-1933 262,-1919.2876 262,-1908.4133"/>
</g>
<!-- L8 -->
<g id="node42" class="node">
<title>L8</title>
<ellipse fill="none" stroke="#000000" cx="261" cy="-1818" rx="27" ry="18"/>
<text text-anchor="middle" x="261" y="-1813.8" font-family="Times,serif" font-size="14.00" fill="#000000">L8</text>
</g>
<!-- X32&#45;&#45;L8 -->
<g id="edge76" class="edge">
<title>X32--L8</title>
<path fill="none" stroke="#000000" d="M261.7477,-1871.8314C261.5972,-1861 261.4068,-1847.2876 261.2557,-1836.4133"/>
</g>
<!-- X33 -->
<g id="node43" class="node">
<title>X33</title>
<ellipse fill="none" stroke="#000000" cx="316" cy="-1746" rx="27.8306" ry="18"/>
<text text-anchor="middle" x="316" y="-1741.8" font-family="Times,serif" font-size="14.00" fill="#000000">X33</text>
</g>
<!-- X32&#45;&#45;X33 -->
<g id="edge77" class="edge">
<title>X32--X33</title>
<path fill="none" stroke="#000000" d="M274.7187,-1873.8594C282.2425,-1863.5618 291.372,-1849.6309 297,-1836 306.8121,-1812.2352 311.7974,-1782.765 314.1461,-1764.1652"/>
</g>
<!-- L8&#45;&#45;X33 -->
<g id="edge78" class="edge">
<title>L8--X33</title>
<path fill="none" stroke="#000000" d="M273.4804,-1801.6621C282.4814,-1789.8788 294.5793,-1774.0416 303.569,-1762.2733"/>
</g>
<!-- X34 -->
<g id="node44" class="node">
<title>X34</title>
<ellipse fill="none" stroke="#000000" cx="297" cy="-1674" rx="27.8306" ry="18"/>
<text text-anchor="middle" x="297" y="-1669.8" font-family="Times,serif" font-size="14.00" fill="#000000">X34</text>
</g>
<!-- L8&#45;&#45;X34 -->
<g id="edge79" class="edge">
<title>L8--X34</title>
<path fill="none" stroke="#000000" d="M263.9347,-1799.9189C267.0609,-1781.637 272.4562,-1752.641 279,-1728 282.2466,-1715.7746 286.7466,-1702.2746 290.435,-1691.831"/>
</g>
<!-- X35 -->
<g id="node45" class="node">
<title>X35</title>
<ellipse fill="none" stroke="#000000" cx="297" cy="-1602" rx="27.8306" ry="18"/>
<text text-anchor="middle" x="297" y="-1597.8" font-family="Times,serif" font-size="14.00" fill="#000000">X35</text>
</g>
<!-- L8&#45;&#45;X35 -->
<g id="edge80" class="edge">
<title>L8--X35</title>
<path fill="none" stroke="#000000" d="M257.4299,-1799.987C252.1454,-1769.5233 244.4393,-1706.2401 260,-1656 264.4383,-1641.6704 274.1367,-1627.7612 282.4908,-1617.6488"/>
</g>
<!-- X36 -->
<g id="node46" class="node">
<title>X36</title>
<ellipse fill="none" stroke="#000000" cx="306" cy="-1530" rx="27.8306" ry="18"/>
<text text-anchor="middle" x="306" y="-1525.8" font-family="Times,serif" font-size="14.00" fill="#000000">X36</text>
</g>
<!-- L8&#45;&#45;X36 -->
<g id="edge81" class="edge">
<title>L8--X36</title>
<path fill="none" stroke="#000000" d="M286.0004,-1811.0492C308.0183,-1803.453 338.736,-1788.9119 353,-1764 394.6934,-1691.183 341.0184,-1587.1496 316.7629,-1546.8472"/>
</g>
<!-- X33&#45;&#45;X34 -->
<g id="edge82" class="edge">
<title>X33--X34</title>
<path fill="none" stroke="#000000" d="M311.3034,-1728.2022C308.3803,-1717.1252 304.6338,-1702.928 301.7084,-1691.8425"/>
</g>
<!-- X34&#45;&#45;X35 -->
<g id="edge83" class="edge">
<title>X34--X35</title>
<path fill="none" stroke="#000000" d="M297,-1655.8314C297,-1645 297,-1631.2876 297,-1620.4133"/>
</g>
<!-- X35&#45;&#45;X36 -->
<g id="edge84" class="edge">
<title>X35--X36</title>
<path fill="none" stroke="#000000" d="M299.2711,-1583.8314C300.625,-1573 302.3391,-1559.2876 303.6983,-1548.4133"/>
</g>
<!-- X37 -->
<g id="node47" class="node">
<title>X37</title>
<ellipse fill="none" stroke="#000000" cx="306" cy="-1458" rx="27.8306" ry="18"/>
<text text-anchor="middle" x="306" y="-1453.8" font-family="Times,serif" font-size="14.00" fill="#000000">X37</text>
</g>
<!-- X36&#45;&#45;X37 -->
<g id="edge85" class="edge">
<title>X36--X37</title>
<path fill="none" stroke="#000000" d="M306,-1511.8314C306,-1501 306,-1487.2876 306,-1476.4133"/>
</g>
<!-- L9 -->
<g id="node48" class="node">
<title>L9</title>
<ellipse fill="none" stroke="#000000" cx="247" cy="-1386" rx="27" ry="18"/>
<text text-anchor="middle" x="247" y="-1381.8" font-family="Times,serif" font-size="14.00" fill="#000000">L9</text>
</g>
<!-- X37&#45;&#45;L9 -->
<g id="edge86" class="edge">
<title>X37--L9</title>
<path fill="none" stroke="#000000" d="M292.906,-1442.0209C283.1287,-1430.0892 269.8259,-1413.8553 260.0574,-1401.9345"/>
</g>
<!-- X38 -->
<g id="node49" class="node">
<title>X38</title>
<ellipse fill="none" stroke="#000000" cx="322" cy="-1314" rx="27.8306" ry="18"/>
<text text-anchor="middle" x="322" y="-1309.8" font-family="Times,serif" font-size="14.00" fill="#000000">X38</text>
</g>
<!-- X37&#45;&#45;X38 -->
<g id="edge87" class="edge">
<title>X37--X38</title>
<path fill="none" stroke="#000000" d="M308.0264,-1439.7623C311.1041,-1412.0633 316.9222,-1359.7005 319.99,-1332.0896"/>
</g>
<!-- L9&#45;&#45;X38 -->
<g id="edge88" class="edge">
<title>L9--X38</title>
<path fill="none" stroke="#000000" d="M262.54,-1371.0816C275.3261,-1358.807 293.3711,-1341.4838 306.2218,-1329.147"/>
</g>
<!-- X39 -->
<g id="node50" class="node">
<title>X39</title>
<ellipse fill="none" stroke="#000000" cx="284" cy="-1242" rx="27.8306" ry="18"/>
<text text-anchor="middle" x="284" y="-1237.8" font-family="Times,serif" font-size="14.00" fill="#000000">X39</text>
</g>
<!-- L9&#45;&#45;X39 -->
<g id="edge89" class="edge">
<title>L9--X39</title>
<path fill="none" stroke="#000000" d="M251.6113,-1368.0535C258.7014,-1340.4592 272.2056,-1287.9026 279.3306,-1260.1727"/>
</g>
<!-- X40 -->
<g id="node51" class="node">
<title>X40</title>
<ellipse fill="none" stroke="#000000" cx="208" cy="-1170" rx="27.8306" ry="18"/>
<text text-anchor="middle" x="208" y="-1165.8" font-family="Times,serif" font-size="14.00" fill="#000000">X40</text>
</g>
<!-- L9&#45;&#45;X40 -->
<g id="edge90" class="edge">
<title>L9--X40</title>
<path fill="none" stroke="#000000" d="M234.2194,-1370.0387C226.8287,-1359.8087 218.1858,-1345.8856 214,-1332 198.81,-1281.6099 202.6101,-1218.3959 205.7622,-1187.9803"/>
</g>
<!-- X41 -->
<g id="node52" class="node">
<title>X41</title>
<ellipse fill="none" stroke="#000000" cx="189" cy="-1098" rx="27.8306" ry="18"/>
<text text-anchor="middle" x="189" y="-1093.8" font-family="Times,serif" font-size="14.00" fill="#000000">X41</text>
</g>
<!-- L9&#45;&#45;X41 -->
<g id="edge91" class="edge">
<title>L9--X41</title>
<path fill="none" stroke="#000000" d="M230.9611,-1370.9131C221.1564,-1360.8068 209.1627,-1346.7006 202,-1332 173.3248,-1273.148 177.9278,-1253.0986 171,-1188 169.3068,-1172.0898 168.4371,-1167.7934 171,-1152 173.0262,-1139.5142 177.5262,-1126.0142 181.5196,-1115.6357"/>
</g>
<!-- X42 -->
<g id="node53" class="node">
<title>X42</title>
<ellipse fill="none" stroke="#000000" cx="189" cy="-1026" rx="27.8306" ry="18"/>
<text text-anchor="middle" x="189" y="-1021.8" font-family="Times,serif" font-size="14.00" fill="#000000">X42</text>
</g>
<!-- L9&#45;&#45;X42 -->
<g id="edge92" class="edge">
<title>L9--X42</title>
<path fill="none" stroke="#000000" d="M246.9683,-1367.8353C246.8593,-1314.6984 246.4239,-1162.6202 245,-1152 240.6022,-1119.1981 239.7773,-1110.0914 226,-1080 219.7551,-1066.3604 210.1131,-1052.4297 202.2376,-1042.1345"/>
</g>
<!-- X43 -->
<g id="node54" class="node">
<title>X43</title>
<ellipse fill="none" stroke="#000000" cx="188" cy="-954" rx="27.8306" ry="18"/>
<text text-anchor="middle" x="188" y="-949.8" font-family="Times,serif" font-size="14.00" fill="#000000">X43</text>
</g>
<!-- L9&#45;&#45;X43 -->
<g id="edge93" class="edge">
<title>L9--X43</title>
<path fill="none" stroke="#000000" d="M225.0378,-1375.1147C187.262,-1354.6618 114,-1306.6604 114,-1242 114,-1242 114,-1242 114,-1098 114,-1046.2816 152.2285,-994.5178 173.7321,-969.4916"/>
</g>
<!-- X44 -->
<g id="node55" class="node">
<title>X44</title>
<ellipse fill="none" stroke="#000000" cx="188" cy="-882" rx="27.8306" ry="18"/>
<text text-anchor="middle" x="188" y="-877.8" font-family="Times,serif" font-size="14.00" fill="#000000">X44</text>
</g>
<!-- L9&#45;&#45;X44 -->
<g id="edge94" class="edge">
<title>L9--X44</title>
<path fill="none" stroke="#000000" d="M272.9661,-1380.5105C298.789,-1373.6594 337.5601,-1359.3531 359,-1332 384.2198,-1299.8244 378,-1282.8816 378,-1242 378,-1242 378,-1242 378,-1026 378,-944.6698 266.0565,-903.3528 214.0203,-888.5403"/>
</g>
<!-- X38&#45;&#45;X39 -->
<g id="edge95" class="edge">
<title>X38--X39</title>
<path fill="none" stroke="#000000" d="M312.9945,-1296.937C307.0248,-1285.626 299.2149,-1270.8282 293.2048,-1259.4407"/>
</g>
<!-- X39&#45;&#45;X40 -->
<g id="edge96" class="edge">
<title>X39--X40</title>
<path fill="none" stroke="#000000" d="M268.2528,-1227.0816C255.2093,-1214.7246 236.765,-1197.251 223.7271,-1184.8993"/>
</g>
<!-- X40&#45;&#45;X41 -->
<g id="edge97" class="edge">
<title>X40--X41</title>
<path fill="none" stroke="#000000" d="M203.3034,-1152.2022C200.3803,-1141.1252 196.6338,-1126.928 193.7084,-1115.8425"/>
</g>
<!-- X41&#45;&#45;X42 -->
<g id="edge98" class="edge">
<title>X41--X42</title>
<path fill="none" stroke="#000000" d="M189,-1079.8314C189,-1069 189,-1055.2876 189,-1044.4133"/>
</g>
<!-- X42&#45;&#45;X43 -->
<g id="edge99" class="edge">
<title>X42--X43</title>
<path fill="none" stroke="#000000" d="M188.7477,-1007.8314C188.5972,-997 188.4068,-983.2876 188.2557,-972.4133"/>
</g>
<!-- X43&#45;&#45;X44 -->
<g id="edge100" class="edge">
<title>X43--X44</title>
<path fill="none" stroke="#000000" d="M188,-935.8314C188,-925 188,-911.2876 188,-900.4133"/>
</g>
<!-- X45 -->
<g id="node56" class="node">
<title>X45</title>
<ellipse fill="none" stroke="#000000" cx="183" cy="-810" rx="27.8306" ry="18"/>
<text text-anchor="middle" x="183" y="-805.8" font-family="Times,serif" font-size="14.00" fill="#000000">X45</text>
</g>
<!-- X44&#45;&#45;X45 -->
<g id="edge101" class="edge">
<title>X44--X45</title>
<path fill="none" stroke="#000000" d="M186.7383,-863.8314C185.9861,-853 185.0339,-839.2876 184.2787,-828.4133"/>
</g>
<!-- L10 -->
<g id="node57" class="node">
<title>L10</title>
<ellipse fill="none" stroke="#000000" cx="183" cy="-738" rx="27" ry="18"/>
<text text-anchor="middle" x="183" y="-733.8" font-family="Times,serif" font-size="14.00" fill="#000000">L10</text>
</g>
<!-- X45&#45;&#45;L10 -->
<g id="edge102" class="edge">
<title>X45--L10</title>
<path fill="none" stroke="#000000" d="M183,-791.8314C183,-781 183,-767.2876 183,-756.4133"/>
</g>
<!-- X45&#45;&#45;X46 -->
<g id="edge103" class="edge">
<title>X45--X46</title>
<path fill="none" stroke="#000000" d="M166.2037,-795.4297C151.8036,-782.938 131.1642,-765.034 116.7713,-752.5486"/>
</g>
<!-- X46&#45;&#45;X47 -->
<g id="edge104" class="edge">
<title>X46--X47</title>
<path fill="none" stroke="#000000" d="M100,-719.8314C100,-709 100,-695.2876 100,-684.4133"/>
</g>
<!-- X47&#45;&#45;X48 -->
<g id="edge105" class="edge">
<title>X47--X48</title>
<path fill="none" stroke="#000000" d="M127.0155,-661.6582C206.8478,-648.828 441.0717,-611.1849 520.9493,-598.3474"/>
</g>
<!-- X48&#45;&#45;X49 -->
<g id="edge106" class="edge">
<title>X48--X49</title>
<path fill="none" stroke="#000000" d="M557.0055,-576.937C562.9752,-565.626 570.7851,-550.8282 576.7952,-539.4407"/>
</g>
<!-- X49&#45;&#45;X50 -->
<g id="edge107" class="edge">
<title>X49--X50</title>
<path fill="none" stroke="#000000" d="M581.3034,-504.2022C578.3803,-493.1252 574.6338,-478.928 571.7084,-467.8425"/>
</g>
<!-- X50&#45;&#45;X51 -->
<g id="edge108" class="edge">
<title>X50--X51</title>
<path fill="none" stroke="#000000" d="M567,-431.8314C567,-421 567,-407.2876 567,-396.4133"/>
</g>
<!-- X51&#45;&#45;X52 -->
<g id="edge109" class="edge">
<title>X51--X52</title>
<path fill="none" stroke="#000000" d="M554.0658,-361.6621C544.7374,-349.8788 532.1996,-334.0416 522.883,-322.2733"/>
</g>
<!-- X52&#45;&#45;X53 -->
<g id="edge110" class="edge">
<title>X52--X53</title>
<path fill="none" stroke="#000000" d="M503.0786,-288.2022C498.7385,-277.0419 493.1667,-262.7143 488.8417,-251.593"/>
</g>
<!-- X53&#45;&#45;X54 -->
<g id="edge111" class="edge">
<title>X53--X54</title>
<path fill="none" stroke="#000000" d="M482,-215.8314C482,-205 482,-191.2876 482,-180.4133"/>
</g>
<!-- X54&#45;&#45;X55 -->
<g id="edge112" class="edge">
<title>X54--X55</title>
<path fill="none" stroke="#000000" d="M505.9026,-152.439C540.4257,-138.6297 603.8674,-113.2531 638.2852,-99.4859"/>
</g>
<!-- X55&#45;&#45;X56 -->
<g id="edge113" class="edge">
<title>X55--X56</title>
<path fill="none" stroke="#000000" d="M668.9214,-72.2022C673.2615,-61.0419 678.8333,-46.7143 683.1583,-35.593"/>
</g>
</g>
</svg>