<?xml version="1.0" encoding="UTF-8" standalone="no"?>
<!DOCTYPE svg PUBLIC "-//W3C//DTD SVG 1.1//EN" "http://www.w3.org/Graphics/SVG/1.1/DTD/svg11.dtd">
<!-- Generated by graphviz version 2.40.1 (20161225.0304)
 -->
<!-- Title: %0 Pages: 1 -->
<svg width="1427pt" height="3860pt" viewBox="0.00 0.00 1426.66 3860.00" xmlns="http://www.w3.org/2000/svg" xmlns:xlink="http://www.w3.org/1999/xlink">
<g id="graph0" class="graph" transform="scale(1 1) rotate(0) translate(4 3856)">
<title>%0</title>
<polygon fill="#ffffff" stroke="transparent" points="-4,4 -4,-3856 1422.6648,-3856 1422.6648,4 -4,4"/>
<!-- X0 -->
<g id="node1" class="node">
<title>X0</title>
<ellipse fill="none" stroke="#000000" cx="187" cy="-3834" rx="27" ry="18"/>
<text text-anchor="middle" x="187" y="-3829.8" font-family="Times,serif" font-size="14.00" fill="#000000">X0</text>
</g>
<!-- L0 -->
<g id="node2" class="node">
<title>L0</title>
<ellipse fill="none" stroke="#000000" cx="215" cy="-3762" rx="27" ry="18"/>
<text text-anchor="middle" x="215" y="-3757.8" font-family="Times,serif" font-size="14.00" fill="#000000">L0</text>
</g>
<!-- X0&#45;&#45;L0 -->
<g id="edge1" class="edge">
<title>X0--L0</title>
<path fill="none" stroke="#000000" d="M193.778,-3816.5708C198.1479,-3805.3339 203.8106,-3790.7727 208.1874,-3779.5182"/>
</g>
<!-- X1 -->
<g id="node3" class="node">
<title>X1</title>
<ellipse fill="none" stroke="#000000" cx="160" cy="-3690" rx="27" ry="18"/>
<text text-anchor="middle" x="160" y="-3685.8" font-family="Times,serif" font-size="14.00" fill="#000000">X1</text>
</g>
<!-- X0&#45;&#45;X1 -->
<g id="edge2" class="edge">
<title>X0--X1</title>
<path fill="none" stroke="#000000" d="M183.635,-3816.0535C178.4611,-3788.4592 168.6067,-3735.9026 163.4074,-3708.1727"/>
</g>
<!-- L0&#45;&#45;X1 -->
<g id="edge3" class="edge">
<title>L0--X1</title>
<path fill="none" stroke="#000000" d="M202.5196,-3745.6621C193.5186,-3733.8788 181.4207,-3718.0416 172.431,-3706.2733"/>
</g>
<!-- X2 -->
<g id="node4" class="node">
<title>X2</title>
<ellipse fill="none" stroke="#000000" cx="198" cy="-3618" rx="27" ry="18"/>
<text text-anchor="middle" x="198" y="-3613.8" font-family="Times,serif" font-size="14.00" fill="#000000">X2</text>
</g>
<!-- L0&#45;&#45;X2 -->
<g id="edge4" class="edge">
<title>L0--X2</title>
<path fill="none" stroke="#000000" d="M212.8813,-3744.0535C209.6237,-3716.4592 203.4191,-3663.9026 200.1454,-3636.1727"/>
</g>
<!-- X3 -->
<g id="node5" class="node">
<title>X3</title>
<ellipse fill="none" stroke="#000000" cx="225" cy="-3546" rx="27" ry="18"/>
<text text-anchor="middle" x="225" y="-3541.8" font-family="Times,serif" font-size="14.00" fill="#000000">X3</text>
</g>
<!-- L0&#45;&#45;X3 -->
<g id="edge5" class="edge">
<title>L0--X3</title>
<path fill="none" stroke="#000000" d="M219.4593,-3744.0608C226.3458,-3714.225 238.3443,-3652.4916 234,-3600 232.9966,-3587.8759 230.7466,-3574.3759 228.7474,-3563.9069"/>
</g>
<!-- X1&#45;&#45;X2 -->
<g id="edge6" class="edge">
<title>X1--X2</title>
<path fill="none" stroke="#000000" d="M169.0055,-3672.937C174.9752,-3661.626 182.7851,-3646.8282 188.7952,-3635.4407"/>
</g>
<!-- X2&#45;&#45;X3 -->
<g id="edge7" class="edge">
<title>X2--X3</title>
<path fill="none" stroke="#000000" d="M204.6742,-3600.2022C208.8593,-3589.0419 214.2321,-3574.7143 218.4026,-3563.593"/>
</g>
<!-- X4 -->
<g id="node6" class="node">
<title>X4</title>
<ellipse fill="none" stroke="#000000" cx="225" cy="-3474" rx="27" ry="18"/>
<text text-anchor="middle" x="225" y="-3469.8" font-family="Times,serif" font-size="14.00" fill="#000000">X4</text>
</g>
<!-- X3&#45;&#45;X4 -->
<g id="edge8" class="edge">
<title>X3--X4</title>
<path fill="none" stroke="#000000" d="M225,-3527.8314C225,-3517 225,-3503.2876 225,-3492.4133"/>
</g>
<!-- L1 -->
<g id="node7" class="node">
<title>L1</title>
<ellipse fill="none" stroke="#000000" cx="424" cy="-3402" rx="27" ry="18"/>
<text text-anchor="middle" x="424" y="-3397.8" font-family="Times,serif" font-size="14.00" fill="#000000">L1</text>
</g>
<!-- X4&#45;&#45;L1 -->
<g id="edge9" class="edge">
<title>X4--L1</title>
<path fill="none" stroke="#000000" d="M249.004,-3465.3151C287.3561,-3451.439 362.0108,-3424.4283 400.2206,-3410.6036"/>
</g>
<!-- X5 -->
<g id="node8" class="node">
<title>X5</title>
<ellipse fill="none" stroke="#000000" cx="27" cy="-3330" rx="27" ry="18"/>
<text text-anchor="middle" x="27" y="-3325.8" font-family="Times,serif" font-size="14.00" fill="#000000">X5</text>
</g>
<!-- X4&#45;&#45;X5 -->
<g id="edge10" class="edge">
<title>X4--X5</title>
<path fill="none" stroke="#000000" d="M206.7275,-3460.7109C169.1035,-3433.348 83.347,-3370.9797 45.5162,-3343.4663"/>
</g>
<!-- L1&#45;&#45;X5 -->
<g id="edge11" class="edge">
<title>L1--X5</title>
<path fill="none" stroke="#000000" d="M396.6827,-3400.3115C336.3247,-3396.0519 187.4823,-3382.6312 68,-3348 61.5788,-3346.1389 54.8448,-3343.4968 48.7329,-3340.8085"/>
</g>
<!-- X6 -->
<g id="node9" class="node">
<title>X6</title>
<ellipse fill="none" stroke="#000000" cx="65" cy="-3258" rx="27" ry="18"/>
<text text-anchor="middle" x="65" y="-3253.8" font-family="Times,serif" font-size="14.00" fill="#000000">X6</text>
</g>
<!-- L1&#45;&#45;X6 -->
<g id="edge12" class="edge">
<title>L1--X6</title>
<path fill="none" stroke="#000000" d="M396.5827,-3400.5917C328.0438,-3396.5728 151.493,-3382.9999 106,-3348 83.0016,-3330.3062 72.5002,-3296.7512 68.0187,-3275.9878"/>
</g>
<!-- X7 -->
<g id="node10" class="node">
<title>X7</title>
<ellipse fill="none" stroke="#000000" cx="103" cy="-3186" rx="27" ry="18"/>
<text text-anchor="middle" x="103" y="-3181.8" font-family="Times,serif" font-size="14.00" fill="#000000">X7</text>
</g>
<!-- L1&#45;&#45;X7 -->
<g id="edge13" class="edge">
<title>L1--X7</title>
<path fill="none" stroke="#000000" d="M396.7334,-3400.3878C333.6712,-3396.1037 180.3561,-3382.3282 144,-3348 103.499,-3309.7581 100.687,-3237.754 101.8123,-3204.1421"/>
</g>
<!-- X8 -->
<g id="node11" class="node">
<title>X8</title>
<ellipse fill="none" stroke="#000000" cx="141" cy="-3114" rx="27" ry="18"/>
<text text-anchor="middle" x="141" y="-3109.8" font-family="Times,serif" font-size="14.00" fill="#000000">X8</text>
</g>
<!-- L1&#45;&#45;X8 -->
<g id="edge14" class="edge">
<title>L1--X8</title>
<path fill="none" stroke="#000000" d="M396.895,-3399.6866C340.1022,-3394.2688 211.4321,-3378.8209 182,-3348 152.3766,-3316.9788 143.8248,-3181.8905 141.6593,-3132.323"/>
</g>
<!-- X9 -->
<g id="node12" class="node">
<title>X9</title>
<ellipse fill="none" stroke="#000000" cx="179" cy="-3042" rx="27" ry="18"/>
<text text-anchor="middle" x="179" y="-3037.8" font-family="Times,serif" font-size="14.00" fill="#000000">X9</text>
</g>
<!-- L1&#45;&#45;X9 -->
<g id="edge15" class="edge">
<title>L1--X9</title>
<path fill="none" stroke="#000000" d="M397.563,-3398.3364C348.264,-3390.9852 245.0221,-3372.9763 220,-3348 190.7005,-3318.7542 196,-3299.3978 196,-3258 196,-3258 196,-3258 196,-3186 196,-3140.4358 187.5018,-3087.3176 182.5224,-3060.1045"/>
</g>
<!-- X10 -->
<g id="node13" class="node">
<title>X10</title>
<ellipse fill="none" stroke="#000000" cx="216" cy="-2970" rx="27.8306" ry="18"/>
<text text-anchor="middle" x="216" y="-2965.8" font-family="Times,serif" font-size="14.00" fill="#000000">X10</text>
</g>
<!-- L1&#45;&#45;X10 -->
<g id="edge16" class="edge">
<title>L1--X10</title>
<path fill="none" stroke="#000000" d="M397.9012,-3396.6847C356.2315,-3387.6949 277.3852,-3368.4593 258,-3348 229.5268,-3317.9491 234,-3299.3978 234,-3258 234,-3258 234,-3258 234,-3114 234,-3068.3979 225.0019,-3015.2954 219.7296,-2988.0947"/>
</g>
<!-- X11 -->
<g id="node14" class="node">
<title>X11</title>
<ellipse fill="none" stroke="#000000" cx="254" cy="-2898" rx="27.8306" ry="18"/>
<text text-anchor="middle" x="254" y="-2893.8" font-family="Times,serif" font-size="14.00" fill="#000000">X11</text>
</g>
<!-- L1&#45;&#45;X11 -->
<g id="edge17" class="edge">
<title>L1--X11</title>
<path fill="none" stroke="#000000" d="M397.6704,-3397.9226C368.5773,-3392.0247 322.3612,-3378.2942 296,-3348 268.8249,-3316.7704 272,-3299.3978 272,-3258 272,-3258 272,-3258 272,-3042 272,-2996.3979 263.0019,-2943.2954 257.7296,-2916.0947"/>
</g>
<!-- X12 -->
<g id="node15" class="node">
<title>X12</title>
<ellipse fill="none" stroke="#000000" cx="292" cy="-2826" rx="27.8306" ry="18"/>
<text text-anchor="middle" x="292" y="-2821.8" font-family="Times,serif" font-size="14.00" fill="#000000">X12</text>
</g>
<!-- L1&#45;&#45;X12 -->
<g id="edge18" class="edge">
<title>L1--X12</title>
<path fill="none" stroke="#000000" d="M399.7577,-3393.459C379.2666,-3385.0133 350.6622,-3370.1245 334,-3348 309.0955,-3314.9312 310,-3299.3978 310,-3258 310,-3258 310,-3258 310,-2970 310,-2924.3979 301.0019,-2871.2954 295.7296,-2844.0947"/>
</g>
<!-- X13 -->
<g id="node16" class="node">
<title>X13</title>
<ellipse fill="none" stroke="#000000" cx="330" cy="-2754" rx="27.8306" ry="18"/>
<text text-anchor="middle" x="330" y="-2749.8" font-family="Times,serif" font-size="14.00" fill="#000000">X13</text>
</g>
<!-- L1&#45;&#45;X13 -->
<g id="edge19" class="edge">
<title>L1--X13</title>
<path fill="none" stroke="#000000" d="M406.6649,-3388.1288C395.2451,-3378.1134 380.8239,-3363.6438 372,-3348 351.6618,-3311.9426 348,-3299.3978 348,-3258 348,-3258 348,-3258 348,-2898 348,-2852.3979 339.0019,-2799.2954 333.7296,-2772.0947"/>
</g>
<!-- X14 -->
<g id="node17" class="node">
<title>X14</title>
<ellipse fill="none" stroke="#000000" cx="368" cy="-2682" rx="27.8306" ry="18"/>
<text text-anchor="middle" x="368" y="-2677.8" font-family="Times,serif" font-size="14.00" fill="#000000">X14</text>
</g>
<!-- L1&#45;&#45;X14 -->
<g id="edge20" class="edge">
<title>L1--X14</title>
<path fill="none" stroke="#000000" d="M416.3101,-3384.6554C405.2064,-3357.9874 386,-3305.0576 386,-3258 386,-3258 386,-3258 386,-2826 386,-2780.3979 377.0019,-2727.2954 371.7296,-2700.0947"/>
</g>
<!-- X15 -->
<g id="node18" class="node">
<title>X15</title>
<ellipse fill="none" stroke="#000000" cx="406" cy="-2610" rx="27.8306" ry="18"/>
<text text-anchor="middle" x="406" y="-2605.8" font-family="Times,serif" font-size="14.00" fill="#000000">X15</text>
</g>
<!-- L1&#45;&#45;X15 -->
<g id="edge21" class="edge">
<title>L1--X15</title>
<path fill="none" stroke="#000000" d="M424,-3383.8146C424,-3356.4983 424,-3303.25 424,-3258 424,-3258 424,-3258 424,-2754 424,-2708.3979 415.0019,-2655.2954 409.7296,-2628.0947"/>
</g>
<!-- X16 -->
<g id="node19" class="node">
<title>X16</title>
<ellipse fill="none" stroke="#000000" cx="435" cy="-2538" rx="27.8306" ry="18"/>
<text text-anchor="middle" x="435" y="-2533.8" font-family="Times,serif" font-size="14.00" fill="#000000">X16</text>
</g>
<!-- L1&#45;&#45;X16 -->
<g id="edge22" class="edge">
<title>L1--X16</title>
<path fill="none" stroke="#000000" d="M431.6899,-3384.6554C442.7936,-3357.9874 462,-3305.0576 462,-3258 462,-3258 462,-3258 462,-2682 462,-2635.9615 448.5029,-2583.0397 440.5944,-2555.9823"/>
</g>
<!-- X18 -->
<g id="node22" class="node">
<title>X18</title>
<ellipse fill="none" stroke="#000000" cx="482" cy="-2394" rx="27.8306" ry="18"/>
<text text-anchor="middle" x="482" y="-2389.8" font-family="Times,serif" font-size="14.00" fill="#000000">X18</text>
</g>
<!-- L1&#45;&#45;X18 -->
<g id="edge23" class="edge">
<title>L1--X18</title>
<path fill="none" stroke="#000000" d="M438.6536,-3386.5784C460.7383,-3361.6483 500,-3310.0136 500,-3258 500,-3258 500,-3258 500,-2538 500,-2492.3979 491.0019,-2439.2954 485.7296,-2412.0947"/>
</g>
<!-- X19 -->
<g id="node23" class="node">
<title>X19</title>
<ellipse fill="none" stroke="#000000" cx="520" cy="-2322" rx="27.8306" ry="18"/>
<text text-anchor="middle" x="520" y="-2317.8" font-family="Times,serif" font-size="14.00" fill="#000000">X19</text>
</g>
<!-- L1&#45;&#45;X19 -->
<g id="edge24" class="edge">
<title>L1--X19</title>
<path fill="none" stroke="#000000" d="M443.8573,-3389.6058C476.519,-3367.5062 538,-3317.9455 538,-3258 538,-3258 538,-3258 538,-2466 538,-2420.3979 529.0019,-2367.2954 523.7296,-2340.0947"/>
</g>
<!-- X20 -->
<g id="node24" class="node">
<title>X20</title>
<ellipse fill="none" stroke="#000000" cx="558" cy="-2250" rx="27.8306" ry="18"/>
<text text-anchor="middle" x="558" y="-2245.8" font-family="Times,serif" font-size="14.00" fill="#000000">X20</text>
</g>
<!-- L1&#45;&#45;X20 -->
<g id="edge25" class="edge">
<title>L1--X20</title>
<path fill="none" stroke="#000000" d="M447.4169,-3392.7317C490.0541,-3374.1366 576,-3327.9751 576,-3258 576,-3258 576,-3258 576,-2394 576,-2348.3979 567.0019,-2295.2954 561.7296,-2268.0947"/>
</g>
<!-- X21 -->
<g id="node25" class="node">
<title>X21</title>
<ellipse fill="none" stroke="#000000" cx="596" cy="-2178" rx="27.8306" ry="18"/>
<text text-anchor="middle" x="596" y="-2173.8" font-family="Times,serif" font-size="14.00" fill="#000000">X21</text>
</g>
<!-- L1&#45;&#45;X21 -->
<g id="edge26" class="edge">
<title>L1--X21</title>
<path fill="none" stroke="#000000" d="M449.6242,-3395.5723C501.4861,-3380.8572 614,-3339.5371 614,-3258 614,-3258 614,-3258 614,-2322 614,-2276.3979 605.0019,-2223.2954 599.7296,-2196.0947"/>
</g>
<!-- X22 -->
<g id="node26" class="node">
<title>X22</title>
<ellipse fill="none" stroke="#000000" cx="634" cy="-2106" rx="27.8306" ry="18"/>
<text text-anchor="middle" x="634" y="-2101.8" font-family="Times,serif" font-size="14.00" fill="#000000">X22</text>
</g>
<!-- L1&#45;&#45;X22 -->
<g id="edge27" class="edge">
<title>L1--X22</title>
<path fill="none" stroke="#000000" d="M450.6007,-3398.0262C510.7446,-3387.3806 652,-3352.3364 652,-3258 652,-3258 652,-3258 652,-2250 652,-2204.3979 643.0019,-2151.2954 637.7296,-2124.0947"/>
</g>
<!-- X23 -->
<g id="node27" class="node">
<title>X23</title>
<ellipse fill="none" stroke="#000000" cx="672" cy="-2034" rx="27.8306" ry="18"/>
<text text-anchor="middle" x="672" y="-2029.8" font-family="Times,serif" font-size="14.00" fill="#000000">X23</text>
</g>
<!-- L1&#45;&#45;X23 -->
<g id="edge28" class="edge">
<title>L1--X23</title>
<path fill="none" stroke="#000000" d="M450.9693,-3399.9982C518.5943,-3393.3668 690,-3365.9148 690,-3258 690,-3258 690,-3258 690,-2178 690,-2132.3979 681.0019,-2079.2954 675.7296,-2052.0947"/>
</g>
<!-- X24 -->
<g id="node28" class="node">
<title>X24</title>
<ellipse fill="none" stroke="#000000" cx="710" cy="-1962" rx="27.8306" ry="18"/>
<text text-anchor="middle" x="710" y="-1957.8" font-family="Times,serif" font-size="14.00" fill="#000000">X24</text>
</g>
<!-- L1&#45;&#45;X24 -->
<g id="edge29" class="edge">
<title>L1--X24</title>
<path fill="none" stroke="#000000" d="M450.5632,-3398.7102C506.3549,-3391.3956 633.5026,-3372.4801 669,-3348 708.3738,-3320.8466 728,-3305.8289 728,-3258 728,-3258 728,-3258 728,-2106 728,-2060.3979 719.0019,-2007.2954 713.7296,-1980.0947"/>
</g>
<!-- X25 -->
<g id="node29" class="node">
<title>X25</title>
<ellipse fill="none" stroke="#000000" cx="748" cy="-1890" rx="27.8306" ry="18"/>
<text text-anchor="middle" x="748" y="-1885.8" font-family="Times,serif" font-size="14.00" fill="#000000">X25</text>
</g>
<!-- L1&#45;&#45;X25 -->
<g id="edge30" class="edge">
<title>L1--X25</title>
<path fill="none" stroke="#000000" d="M450.9913,-3399.411C512.7532,-3393.0767 662.2526,-3375.2945 704,-3348 744.6547,-3321.4199 766,-3306.5727 766,-3258 766,-3258 766,-3258 766,-2034 766,-1988.3979 757.0019,-1935.2954 751.7296,-1908.0947"/>
</g>
<!-- X26 -->
<g id="node30" class="node">
<title>X26</title>
<ellipse fill="none" stroke="#000000" cx="767" cy="-1818" rx="27.8306" ry="18"/>
<text text-anchor="middle" x="767" y="-1813.8" font-family="Times,serif" font-size="14.00" fill="#000000">X26</text>
</g>
<!-- L1&#45;&#45;X26 -->
<g id="edge31" class="edge">
<title>L1--X26</title>
<path fill="none" stroke="#000000" d="M450.8759,-3400.0379C518.1182,-3394.7197 691.6948,-3378.349 740,-3348 781.5605,-3321.8885 804,-3307.0824 804,-3258 804,-3258 804,-3258 804,-1962 804,-1915.022 785.299,-1862.0586 774.4875,-1835.3645"/>
</g>
<!-- X27 -->
<g id="node31" class="node">
<title>X27</title>
<ellipse fill="none" stroke="#000000" cx="767" cy="-1746" rx="27.8306" ry="18"/>
<text text-anchor="middle" x="767" y="-1741.8" font-family="Times,serif" font-size="14.00" fill="#000000">X27</text>
</g>
<!-- L1&#45;&#45;X27 -->
<g id="edge32" class="edge">
<title>L1--X27</title>
<path fill="none" stroke="#000000" d="M451.0362,-3400.5471C523.8107,-3396.2215 722.0488,-3381.5817 777,-3348 819.1019,-3322.2707 842,-3307.3413 842,-3258 842,-3258 842,-3258 842,-1890 842,-1838.1348 803.2549,-1786.4352 781.4608,-1761.4568"/>
</g>
<!-- X5&#45;&#45;X6 -->
<g id="edge33" class="edge">
<title>X5--X6</title>
<path fill="none" stroke="#000000" d="M36.0055,-3312.937C41.9752,-3301.626 49.7851,-3286.8282 55.7952,-3275.4407"/>
</g>
<!-- X6&#45;&#45;X7 -->
<g id="edge34" class="edge">
<title>X6--X7</title>
<path fill="none" stroke="#000000" d="M74.0055,-3240.937C79.9752,-3229.626 87.7851,-3214.8282 93.7952,-3203.4407"/>
</g>
<!-- X7&#45;&#45;X8 -->
<g id="edge35" class="edge">
<title>X7--X8</title>
<path fill="none" stroke="#000000" d="M112.0055,-3168.937C117.9752,-3157.626 125.7851,-3142.8282 131.7952,-3131.4407"/>
</g>
<!-- X8&#45;&#45;X9 -->
<g id="edge36" class="edge">
<title>X8--X9</title>
<path fill="none" stroke="#000000" d="M150.0055,-3096.937C155.9752,-3085.626 163.7851,-3070.8282 169.7952,-3059.4407"/>
</g>
<!-- X9&#45;&#45;X10 -->
<g id="edge37" class="edge">
<title>X9--X10</title>
<path fill="none" stroke="#000000" d="M187.7685,-3024.937C193.5811,-3013.626 201.1855,-2998.8282 207.0374,-2987.4407"/>
</g>
<!-- X10&#45;&#45;X11 -->
<g id="edge38" class="edge">
<title>X10--X11</title>
<path fill="none" stroke="#000000" d="M225.0055,-2952.937C230.9752,-2941.626 238.7851,-2926.8282 244.7952,-2915.4407"/>
</g>
<!-- X11&#45;&#45;X12 -->
<g id="edge39" class="edge">
<title>X11--X12</title>
<path fill="none" stroke="#000000" d="M263.0055,-2880.937C268.9752,-2869.626 276.7851,-2854.8282 282.7952,-2843.4407"/>
</g>
<!-- X12&#45;&#45;X13 -->
<g id="edge40" class="edge">
<title>X12--X13</title>
<path fill="none" stroke="#000000" d="M301.0055,-2808.937C306.9752,-2797.626 314.7851,-2782.8282 320.7952,-2771.4407"/>
</g>
<!-- X13&#45;&#45;X14 -->
<g id="edge41" class="edge">
<title>X13--X14</title>
<path fill="none" stroke="#000000" d="M339.0055,-2736.937C344.9752,-2725.626 352.7851,-2710.8282 358.7952,-2699.4407"/>
</g>
<!-- X14&#45;&#45;X15 -->
<g id="edge42" class="edge">
<title>X14--X15</title>
<path fill="none" stroke="#000000" d="M377.0055,-2664.937C382.9752,-2653.626 390.7851,-2638.8282 396.7952,-2627.4407"/>
</g>
<!-- X15&#45;&#45;X16 -->
<g id="edge43" class="edge">
<title>X15--X16</title>
<path fill="none" stroke="#000000" d="M413.0201,-2592.5708C417.5461,-2581.3339 423.411,-2566.7727 427.944,-2555.5182"/>
</g>
<!-- X17 -->
<g id="node20" class="node">
<title>X17</title>
<ellipse fill="none" stroke="#000000" cx="435" cy="-2466" rx="27.8306" ry="18"/>
<text text-anchor="middle" x="435" y="-2461.8" font-family="Times,serif" font-size="14.00" fill="#000000">X17</text>
</g>
<!-- X16&#45;&#45;X17 -->
<g id="edge44" class="edge">
<title>X16--X17</title>
<path fill="none" stroke="#000000" d="M435,-2519.8314C435,-2509 435,-2495.2876 435,-2484.4133"/>
</g>
<!-- L2 -->
<g id="node21" class="node">
<title>L2</title>
<ellipse fill="none" stroke="#000000" cx="983" cy="-1746" rx="27" ry="18"/>
<text text-anchor="middle" x="983" y="-1741.8" font-family="Times,serif" font-size="14.00" fill="#000000">L2</text>
</g>
<!-- X17&#45;&#45;L2 -->
<g id="edge45" class="edge">
<title>X17--L2</title>
<path fill="none" stroke="#000000" d="M433.1352,-2447.8374C430.499,-2420.55 426,-2367.3383 426,-2322 426,-2322 426,-2322 426,-1890 426,-1834.5038 845.8158,-1766.8331 956.5094,-1749.9549"/>
</g>
<!-- X17&#45;&#45;X18 -->
<g id="edge46" class="edge">
<title>X17--X18</title>
<path fill="none" stroke="#000000" d="M445.9009,-2449.3008C453.4938,-2437.669 463.5782,-2422.2206 471.1582,-2410.6087"/>
</g>
<!-- X28 -->
<g id="node32" class="node">
<title>X28</title>
<ellipse fill="none" stroke="#000000" cx="604" cy="-1674" rx="27.8306" ry="18"/>
<text text-anchor="middle" x="604" y="-1669.8" font-family="Times,serif" font-size="14.00" fill="#000000">X28</text>
</g>
<!-- L2&#45;&#45;X28 -->
<g id="edge47" class="edge">
<title>L2--X28</title>
<path fill="none" stroke="#000000" d="M955.8584,-1743.9289C897.9517,-1739.0179 758.4065,-1724.553 646,-1692 639.4468,-1690.1022 632.5567,-1687.4481 626.2955,-1684.76"/>
</g>
<!-- X29 -->
<g id="node33" class="node">
<title>X29</title>
<ellipse fill="none" stroke="#000000" cx="642" cy="-1602" rx="27.8306" ry="18"/>
<text text-anchor="middle" x="642" y="-1597.8" font-family="Times,serif" font-size="14.00" fill="#000000">X29</text>
</g>
<!-- L2&#45;&#45;X29 -->
<g id="edge48" class="edge">
<title>L2--X29</title>
<path fill="none" stroke="#000000" d="M955.7972,-1744.2511C890.3775,-1739.5576 726.5184,-1724.7557 684,-1692 660.9158,-1674.2162 650.0061,-1640.69 645.257,-1619.9566"/>
</g>
<!-- X30 -->
<g id="node34" class="node">
<title>X30</title>
<ellipse fill="none" stroke="#000000" cx="680" cy="-1530" rx="27.8306" ry="18"/>
<text text-anchor="middle" x="680" y="-1525.8" font-family="Times,serif" font-size="14.00" fill="#000000">X30</text>
</g>
<!-- L2&#45;&#45;X30 -->
<g id="edge49" class="edge">
<title>L2--X30</title>
<path fill="none" stroke="#000000" d="M955.8085,-1743.9575C895.9674,-1738.9139 755.5216,-1723.897 722,-1692 681.5867,-1653.5453 678.1684,-1581.6476 678.985,-1548.1022"/>
</g>
<!-- X31 -->
<g id="node35" class="node">
<title>X31</title>
<ellipse fill="none" stroke="#000000" cx="718" cy="-1458" rx="27.8306" ry="18"/>
<text text-anchor="middle" x="718" y="-1453.8" font-family="Times,serif" font-size="14.00" fill="#000000">X31</text>
</g>
<!-- L2&#45;&#45;X31 -->
<g id="edge50" class="edge">
<title>L2--X31</title>
<path fill="none" stroke="#000000" d="M955.9954,-1743.1272C902.6701,-1736.8907 786.6953,-1720.3465 760,-1692 730.5712,-1660.7508 721.2376,-1525.805 718.7722,-1476.2989"/>
</g>
<!-- X32 -->
<g id="node36" class="node">
<title>X32</title>
<ellipse fill="none" stroke="#000000" cx="756" cy="-1386" rx="27.8306" ry="18"/>
<text text-anchor="middle" x="756" y="-1381.8" font-family="Times,serif" font-size="14.00" fill="#000000">X32</text>
</g>
<!-- L2&#45;&#45;X32 -->
<g id="edge51" class="edge">
<title>L2--X32</title>
<path fill="none" stroke="#000000" d="M956.5196,-1741.5523C910.8792,-1733.3707 820.1527,-1714.6773 798,-1692 769.0718,-1662.3869 774,-1643.3978 774,-1602 774,-1602 774,-1602 774,-1530 774,-1484.3979 765.0019,-1431.2954 759.7296,-1404.0947"/>
</g>
<!-- X33 -->
<g id="node37" class="node">
<title>X33</title>
<ellipse fill="none" stroke="#000000" cx="794" cy="-1314" rx="27.8306" ry="18"/>
<text text-anchor="middle" x="794" y="-1309.8" font-family="Times,serif" font-size="14.00" fill="#000000">X33</text>
</g>
<!-- L2&#45;&#45;X33 -->
<g id="edge52" class="edge">
<title>L2--X33</title>
<path fill="none" stroke="#000000" d="M956.087,-1743.5311C923.0439,-1739.0459 867.5212,-1726.5438 836,-1692 808.0958,-1661.42 812,-1643.3978 812,-1602 812,-1602 812,-1602 812,-1458 812,-1412.3979 803.0019,-1359.2954 797.7296,-1332.0947"/>
</g>
<!-- X34 -->
<g id="node38" class="node">
<title>X34</title>
<ellipse fill="none" stroke="#000000" cx="832" cy="-1242" rx="27.8306" ry="18"/>
<text text-anchor="middle" x="832" y="-1237.8" font-family="Times,serif" font-size="14.00" fill="#000000">X34</text>
</g>
<!-- L2&#45;&#45;X34 -->
<g id="edge53" class="edge">
<title>L2--X34</title>
<path fill="none" stroke="#000000" d="M957.5384,-1739.947C932.6255,-1732.7078 895.3965,-1718.1521 874,-1692 847.7859,-1659.9595 850,-1643.3978 850,-1602 850,-1602 850,-1602 850,-1386 850,-1340.3979 841.0019,-1287.2954 835.7296,-1260.0947"/>
</g>
<!-- X35 -->
<g id="node39" class="node">
<title>X35</title>
<ellipse fill="none" stroke="#000000" cx="870" cy="-1170" rx="27.8306" ry="18"/>
<text text-anchor="middle" x="870" y="-1165.8" font-family="Times,serif" font-size="14.00" fill="#000000">X35</text>
</g>
<!-- L2&#45;&#45;X35 -->
<g id="edge54" class="edge">
<title>L2--X35</title>
<path fill="none" stroke="#000000" d="M961.5832,-1734.8671C945.6214,-1725.4986 924.5042,-1710.6518 912,-1692 888.9477,-1657.6144 888,-1643.3978 888,-1602 888,-1602 888,-1602 888,-1314 888,-1268.3979 879.0019,-1215.2954 873.7296,-1188.0947"/>
</g>
<!-- X36 -->
<g id="node40" class="node">
<title>X36</title>
<ellipse fill="none" stroke="#000000" cx="908" cy="-1098" rx="27.8306" ry="18"/>
<text text-anchor="middle" x="908" y="-1093.8" font-family="Times,serif" font-size="14.00" fill="#000000">X36</text>
</g>
<!-- L2&#45;&#45;X36 -->
<g id="edge55" class="edge">
<title>L2--X36</title>
<path fill="none" stroke="#000000" d="M971.2913,-1729.649C964.304,-1719.2723 955.7087,-1705.332 950,-1692 933.7046,-1653.9443 926,-1643.3978 926,-1602 926,-1602 926,-1602 926,-1242 926,-1196.3979 917.0019,-1143.2954 911.7296,-1116.0947"/>
</g>
<!-- X37 -->
<g id="node41" class="node">
<title>X37</title>
<ellipse fill="none" stroke="#000000" cx="946" cy="-1026" rx="27.8306" ry="18"/>
<text text-anchor="middle" x="946" y="-1021.8" font-family="Times,serif" font-size="14.00" fill="#000000">X37</text>
</g>
<!-- L2&#45;&#45;X37 -->
<g id="edge56" class="edge">
<title>L2--X37</title>
<path fill="none" stroke="#000000" d="M979.0632,-1727.9156C973.498,-1700.7281 964,-1647.6422 964,-1602 964,-1602 964,-1602 964,-1170 964,-1124.3979 955.0019,-1071.2954 949.7296,-1044.0947"/>
</g>
<!-- X38 -->
<g id="node42" class="node">
<title>X38</title>
<ellipse fill="none" stroke="#000000" cx="984" cy="-954" rx="27.8306" ry="18"/>
<text text-anchor="middle" x="984" y="-949.8" font-family="Times,serif" font-size="14.00" fill="#000000">X38</text>
</g>
<!-- L2&#45;&#45;X38 -->
<g id="edge57" class="edge">
<title>L2--X38</title>
<path fill="none" stroke="#000000" d="M986.9368,-1727.9156C992.502,-1700.7281 1002,-1647.6422 1002,-1602 1002,-1602 1002,-1602 1002,-1098 1002,-1052.3979 993.0019,-999.2954 987.7296,-972.0947"/>
</g>
<!-- X39 -->
<g id="node43" class="node">
<title>X39</title>
<ellipse fill="none" stroke="#000000" cx="1022" cy="-882" rx="27.8306" ry="18"/>
<text text-anchor="middle" x="1022" y="-877.8" font-family="Times,serif" font-size="14.00" fill="#000000">X39</text>
</g>
<!-- L2&#45;&#45;X39 -->
<g id="edge58" class="edge">
<title>L2--X39</title>
<path fill="none" stroke="#000000" d="M994.2614,-1729.5531C1010.8729,-1703.6458 1040,-1651.2038 1040,-1602 1040,-1602 1040,-1602 1040,-1026 1040,-980.3979 1031.0019,-927.2954 1025.7296,-900.0947"/>
</g>
<!-- X40 -->
<g id="node44" class="node">
<title>X40</title>
<ellipse fill="none" stroke="#000000" cx="1060" cy="-810" rx="27.8306" ry="18"/>
<text text-anchor="middle" x="1060" y="-805.8" font-family="Times,serif" font-size="14.00" fill="#000000">X40</text>
</g>
<!-- L2&#45;&#45;X40 -->
<g id="edge59" class="edge">
<title>L2--X40</title>
<path fill="none" stroke="#000000" d="M1000.4245,-1732.0836C1027.8502,-1708.4817 1078,-1657.7076 1078,-1602 1078,-1602 1078,-1602 1078,-954 1078,-908.3979 1069.0019,-855.2954 1063.7296,-828.0947"/>
</g>
<!-- X41 -->
<g id="node45" class="node">
<title>X41</title>
<ellipse fill="none" stroke="#000000" cx="1098" cy="-738" rx="27.8306" ry="18"/>
<text text-anchor="middle" x="1098" y="-733.8" font-family="Times,serif" font-size="14.00" fill="#000000">X41</text>
</g>
<!-- L2&#45;&#45;X41 -->
<g id="edge60" class="edge">
<title>L2--X41</title>
<path fill="none" stroke="#000000" d="M1004.9622,-1735.1147C1042.738,-1714.6618 1116,-1666.6604 1116,-1602 1116,-1602 1116,-1602 1116,-882 1116,-836.3979 1107.0019,-783.2954 1101.7296,-756.0947"/>
</g>
<!-- X42 -->
<g id="node46" class="node">
<title>X42</title>
<ellipse fill="none" stroke="#000000" cx="1136" cy="-666" rx="27.8306" ry="18"/>
<text text-anchor="middle" x="1136" y="-661.8" font-family="Times,serif" font-size="14.00" fill="#000000">X42</text>
</g>
<!-- L2&#45;&#45;X42 -->
<g id="edge61" class="edge">
<title>L2--X42</title>
<path fill="none" stroke="#000000" d="M1007.5001,-1738.2597C1054.7832,-1721.6186 1154,-1677.6828 1154,-1602 1154,-1602 1154,-1602 1154,-810 1154,-764.3979 1145.0019,-711.2954 1139.7296,-684.0947"/>
</g>
<!-- X43 -->
<g id="node47" class="node">
<title>X43</title>
<ellipse fill="none" stroke="#000000" cx="1174" cy="-594" rx="27.8306" ry="18"/>
<text text-anchor="middle" x="1174" y="-589.8" font-family="Times,serif" font-size="14.00" fill="#000000">X43</text>
</g>
<!-- L2&#45;&#45;X43 -->
<g id="edge62" class="edge">
<title>L2--X43</title>
<path fill="none" stroke="#000000" d="M1009.0474,-1740.8992C1065.0735,-1728.2542 1192,-1689.9064 1192,-1602 1192,-1602 1192,-1602 1192,-738 1192,-692.3979 1183.0019,-639.2954 1177.7296,-612.0947"/>
</g>
<!-- X44 -->
<g id="node48" class="node">
<title>X44</title>
<ellipse fill="none" stroke="#000000" cx="1212" cy="-522" rx="27.8306" ry="18"/>
<text text-anchor="middle" x="1212" y="-517.8" font-family="Times,serif" font-size="14.00" fill="#000000">X44</text>
</g>
<!-- L2&#45;&#45;X44 -->
<g id="edge63" class="edge">
<title>L2--X44</title>
<path fill="none" stroke="#000000" d="M1009.9035,-1743.0601C1073.9205,-1734.4244 1230,-1703.0119 1230,-1602 1230,-1602 1230,-1602 1230,-666 1230,-620.3979 1221.0019,-567.2954 1215.7296,-540.0947"/>
</g>
<!-- X45 -->
<g id="node49" class="node">
<title>X45</title>
<ellipse fill="none" stroke="#000000" cx="1250" cy="-450" rx="27.8306" ry="18"/>
<text text-anchor="middle" x="1250" y="-445.8" font-family="Times,serif" font-size="14.00" fill="#000000">X45</text>
</g>
<!-- L2&#45;&#45;X45 -->
<g id="edge64" class="edge">
<title>L2--X45</title>
<path fill="none" stroke="#000000" d="M1010.069,-1744.8221C1081.2098,-1740.1358 1268,-1716.8918 1268,-1602 1268,-1602 1268,-1602 1268,-594 1268,-548.3979 1259.0019,-495.2954 1253.7296,-468.0947"/>
</g>
<!-- X46 -->
<g id="node50" class="node">
<title>X46</title>
<ellipse fill="none" stroke="#000000" cx="1288" cy="-378" rx="27.8306" ry="18"/>
<text text-anchor="middle" x="1288" y="-373.8" font-family="Times,serif" font-size="14.00" fill="#000000">X46</text>
</g>
<!-- L2&#45;&#45;X46 -->
<g id="edge65" class="edge">
<title>L2--X46</title>
<path fill="none" stroke="#000000" d="M1009.9078,-1742.999C1068.5168,-1736.0582 1205.539,-1717.5181 1244,-1692 1284.4744,-1665.1461 1306,-1650.5727 1306,-1602 1306,-1602 1306,-1602 1306,-522 1306,-476.3979 1297.0019,-423.2954 1291.7296,-396.0947"/>
</g>
<!-- X47 -->
<g id="node51" class="node">
<title>X47</title>
<ellipse fill="none" stroke="#000000" cx="1326" cy="-306" rx="27.8306" ry="18"/>
<text text-anchor="middle" x="1326" y="-301.8" font-family="Times,serif" font-size="14.00" fill="#000000">X47</text>
</g>
<!-- L2&#45;&#45;X47 -->
<g id="edge66" class="edge">
<title>L2--X47</title>
<path fill="none" stroke="#000000" d="M1010.1466,-1743.6842C1074.6588,-1737.7713 1235.1087,-1720.5372 1280,-1692 1321.4215,-1665.6686 1344,-1651.0824 1344,-1602 1344,-1602 1344,-1602 1344,-450 1344,-404.3979 1335.0019,-351.2954 1329.7296,-324.0947"/>
</g>
<!-- X48 -->
<g id="node52" class="node">
<title>X48</title>
<ellipse fill="none" stroke="#000000" cx="1354" cy="-234" rx="27.8306" ry="18"/>
<text text-anchor="middle" x="1354" y="-229.8" font-family="Times,serif" font-size="14.00" fill="#000000">X48</text>
</g>
<!-- L2&#45;&#45;X48 -->
<g id="edge67" class="edge">
<title>L2--X48</title>
<path fill="none" stroke="#000000" d="M1010.0984,-1744.2781C1080.1654,-1739.4132 1265.4475,-1723.8061 1317,-1692 1358.9923,-1666.0922 1382,-1651.3413 1382,-1602 1382,-1602 1382,-1602 1382,-378 1382,-331.9025 1368.003,-279.0051 1359.8016,-251.9672"/>
</g>
<!-- X18&#45;&#45;X19 -->
<g id="edge68" class="edge">
<title>X18--X19</title>
<path fill="none" stroke="#000000" d="M491.0055,-2376.937C496.9752,-2365.626 504.7851,-2350.8282 510.7952,-2339.4407"/>
</g>
<!-- X19&#45;&#45;X20 -->
<g id="edge69" class="edge">
<title>X19--X20</title>
<path fill="none" stroke="#000000" d="M529.0055,-2304.937C534.9752,-2293.626 542.7851,-2278.8282 548.7952,-2267.4407"/>
</g>
<!-- X20&#45;&#45;X21 -->
<g id="edge70" class="edge">
<title>X20--X21</title>
<path fill="none" stroke="#000000" d="M567.0055,-2232.937C572.9752,-2221.626 580.7851,-2206.8282 586.7952,-2195.4407"/>
</g>
<!-- X21&#45;&#45;X22 -->
<g id="edge71" class="edge">
<title>X21--X22</title>
<path fill="none" stroke="#000000" d="M605.0055,-2160.937C610.9752,-2149.626 618.7851,-2134.8282 624.7952,-2123.4407"/>
</g>
<!-- X22&#45;&#45;X23 -->
<g id="edge72" class="edge">
<title>X22--X23</title>
<path fill="none" stroke="#000000" d="M643.0055,-2088.937C648.9752,-2077.626 656.7851,-2062.8282 662.7952,-2051.4407"/>
</g>
<!-- X23&#45;&#45;X24 -->
<g id="edge73" class="edge">
<title>X23--X24</title>
<path fill="none" stroke="#000000" d="M681.0055,-2016.937C686.9752,-2005.626 694.7851,-1990.8282 700.7952,-1979.4407"/>
</g>
<!-- X24&#45;&#45;X25 -->
<g id="edge74" class="edge">
<title>X24--X25</title>
<path fill="none" stroke="#000000" d="M719.0055,-1944.937C724.9752,-1933.626 732.7851,-1918.8282 738.7952,-1907.4407"/>
</g>
<!-- X25&#45;&#45;X26 -->
<g id="edge75" class="edge">
<title>X25--X26</title>
<path fill="none" stroke="#000000" d="M752.6966,-1872.2022C755.6197,-1861.1252 759.3662,-1846.928 762.2916,-1835.8425"/>
</g>
<!-- X26&#45;&#45;X27 -->
<g id="edge76" class="edge">
<title>X26--X27</title>
<path fill="none" stroke="#000000" d="M767,-1799.8314C767,-1789 767,-1775.2876 767,-1764.4133"/>
</g>
<!-- X27&#45;&#45;X28 -->
<g id="edge77" class="edge">
<title>X27--X28</title>
<path fill="none" stroke="#000000" d="M743.9918,-1735.8369C712.9262,-1722.1146 657.8964,-1697.807 626.8912,-1684.1114"/>
</g>
<!-- X28&#45;&#45;X29 -->
<g id="edge78" class="edge">
<title>X28--X29</title>
<path fill="none" stroke="#000000" d="M613.0055,-1656.937C618.9752,-1645.626 626.7851,-1630.8282 632.7952,-1619.4407"/>
</g>
<!-- X29&#45;&#45;X30 -->
<g id="edge79" class="edge">
<title>X29--X30</title>
<path fill="none" stroke="#000000" d="M651.0055,-1584.937C656.9752,-1573.626 664.7851,-1558.8282 670.7952,-1547.4407"/>
</g>
<!-- X30&#45;&#45;X31 -->
<g id="edge80" class="edge">
<title>X30--X31</title>
<path fill="none" stroke="#000000" d="M689.0055,-1512.937C694.9752,-1501.626 702.7851,-1486.8282 708.7952,-1475.4407"/>
</g>
<!-- X31&#45;&#45;X32 -->
<g id="edge81" class="edge">
<title>X31--X32</title>
<path fill="none" stroke="#000000" d="M727.0055,-1440.937C732.9752,-1429.626 740.7851,-1414.8282 746.7952,-1403.4407"/>
</g>
<!-- X32&#45;&#45;X33 -->
<g id="edge82" class="edge">
<title>X32--X33</title>
<path fill="none" stroke="#000000" d="M765.0055,-1368.937C770.9752,-1357.626 778.7851,-1342.8282 784.7952,-1331.4407"/>
</g>
<!-- X33&#45;&#45;X34 -->
<g id="edge83" class="edge">
<title>X33--X34</title>
<path fill="none" stroke="#000000" d="M803.0055,-1296.937C808.9752,-1285.626 816.7851,-1270.8282 822.7952,-1259.4407"/>
</g>
<!-- X34&#45;&#45;X35 -->
<g id="edge84" class="edge">
<title>X34--X35</title>
<path fill="none" stroke="#000000" d="M841.0055,-1224.937C846.9752,-1213.626 854.7851,-1198.8282 860.7952,-1187.4407"/>
</g>
<!-- X35&#45;&#45;X36 -->
<g id="edge85" class="edge">
<title>X35--X36</title>
<path fill="none" stroke="#000000" d="M879.0055,-1152.937C884.9752,-1141.626 892.7851,-1126.8282 898.7952,-1115.4407"/>
</g>
<!-- X36&#45;&#45;X37 -->
<g id="edge86" class="edge">
<title>X36--X37</title>
<path fill="none" stroke="#000000" d="M917.0055,-1080.937C922.9752,-1069.626 930.7851,-1054.8282 936.7952,-1043.4407"/>
</g>
<!-- X37&#45;&#45;X38 -->
<g id="edge87" class="edge">
<title>X37--X38</title>
<path fill="none" stroke="#000000" d="M955.0055,-1008.937C960.9752,-997.626 968.7851,-982.8282 974.7952,-971.4407"/>
</g>
<!-- X38&#45;&#45;X39 -->
<g id="edge88" class="edge">
<title>X38--X39</title>
<path fill="none" stroke="#000000" d="M993.0055,-936.937C998.9752,-925.626 1006.7851,-910.8282 1012.7952,-899.4407"/>
</g>
<!-- X39&#45;&#45;X40 -->
<g id="edge89" class="edge">
<title>X39--X40</title>
<path fill="none" stroke="#000000" d="M1031.0055,-864.937C1036.9752,-853.626 1044.7851,-838.8282 1050.7952,-827.4407"/>
</g>
<!-- X40&#45;&#45;X41 -->
<g id="edge90" class="edge">
<title>X40--X41</title>
<path fill="none" stroke="#000000" d="M1069.0055,-792.937C1074.9752,-781.626 1082.7851,-766.8282 1088.7952,-755.4407"/>
</g>
<!-- X41&#45;&#45;X42 -->
<g id="edge91" class="edge">
<title>X41--X42</title>
<path fill="none" stroke="#000000" d="M1107.0055,-720.937C1112.9752,-709.626 1120.7851,-694.8282 1126.7952,-683.4407"/>
</g>
<!-- X42&#45;&#45;X43 -->
<g id="edge92" class="edge">
<title>X42--X43</title>
<path fill="none" stroke="#000000" d="M1145.0055,-648.937C1150.9752,-637.626 1158.7851,-622.8282 1164.7952,-611.4407"/>
</g>
<!-- X43&#45;&#45;X44 -->
<g id="edge93" class="edge">
<title>X43--X44</title>
<path fill="none" stroke="#000000" d="M1183.0055,-576.937C1188.9752,-565.626 1196.7851,-550.8282 1202.7952,-539.4407"/>
</g>
<!-- X44&#45;&#45;X45 -->
<g id="edge94" class="edge">
<title>X44--X45</title>
<path fill="none" stroke="#000000" d="M1221.0055,-504.937C1226.9752,-493.626 1234.7851,-478.8282 1240.7952,-467.4407"/>
</g>
<!-- X45&#45;&#45;X46 -->
<g id="edge95" class="edge">
<title>X45--X46</title>
<path fill="none" stroke="#000000" d="M1259.0055,-432.937C1264.9752,-421.626 1272.7851,-406.8282 1278.7952,-395.4407"/>
</g>
<!-- X46&#45;&#45;X47 -->
<g id="edge96" class="edge">
<title>X46--X47</title>
<path fill="none" stroke="#000000" d="M1297.0055,-360.937C1302.9752,-349.626 1310.7851,-334.8282 1316.7952,-323.4407"/>
</g>
<!-- X47&#45;&#45;X48 -->
<g id="edge97" class="edge">
<title>X47--X48</title>
<path fill="none" stroke="#000000" d="M1332.9214,-288.2022C1337.2615,-277.0419 1342.8333,-262.7143 1347.1583,-251.593"/>
</g>
<!-- X49 -->
<g id="node53" class="node">
<title>X49</title>
<ellipse fill="none" stroke="#000000" cx="1354" cy="-162" rx="27.8306" ry="18"/>
<text text-anchor="middle" x="1354" y="-157.8" font-family="Times,serif" font-size="14.00" fill="#000000">X49</text>
</g>
<!-- X48&#45;&#45;X49 -->
<g id="edge98" class="edge">
<title>X48--X49</title>
<path fill="none" stroke="#000000" d="M1354,-215.8314C1354,-205 1354,-191.2876 1354,-180.4133"/>
</g>
<!-- L3 -->
<g id="node54" class="node">
<title>L3</title>
<ellipse fill="none" stroke="#000000" cx="1318" cy="-90" rx="27" ry="18"/>
<text text-anchor="middle" x="1318" y="-85.8" font-family="Times,serif" font-size="14.00" fill="#000000">L3</text>
</g>
<!-- X49&#45;&#45;L3 -->
<g id="edge99" class="edge">
<title>X49--L3</title>
<path fill="none" stroke="#000000" d="M1345.2854,-144.5708C1339.6253,-133.2506 1332.2784,-118.5568 1326.6343,-107.2687"/>
</g>
<!-- X50 -->
<g id="node55" class="node">
<title>X50</title>
<ellipse fill="none" stroke="#000000" cx="1391" cy="-90" rx="27.8306" ry="18"/>
<text text-anchor="middle" x="1391" y="-85.8" font-family="Times,serif" font-size="14.00" fill="#000000">X50</text>
</g>
<!-- X49&#45;&#45;X50 -->
<g id="edge100" class="edge">
<title>X49--X50</title>
<path fill="none" stroke="#000000" d="M1362.9567,-144.5708C1368.774,-133.2506 1376.325,-118.5568 1382.1258,-107.2687"/>
</g>
<!-- L4 -->
<g id="node56" class="node">
<title>L4</title>
<ellipse fill="none" stroke="#000000" cx="1391" cy="-18" rx="27" ry="18"/>
<text text-anchor="middle" x="1391" y="-13.8" font-family="Times,serif" font-size="14.00" fill="#000000">L4</text>
</g>
<!-- X50&#45;&#45;L4 -->
<g id="edge101" class="edge">
<title>X50--L4</title>
<path fill="none" stroke="#000000" d="M1391,-71.8314C1391,-61 1391,-47.2876 1391,-36.4133"/>
</g>
</g>
</svg>